<?xml version="1.0" standalone="no"?>
<!DOCTYPE svg PUBLIC "-//W3C//DTD SVG 20010904//EN"
 "http://www.w3.org/TR/2001/REC-SVG-20010904/DTD/svg10.dtd">
<svg version="1.0" xmlns="http://www.w3.org/2000/svg"
 width="640.000000pt" height="640.000000pt" viewBox="0 0 640.000000 640.000000"
 preserveAspectRatio="xMidYMid meet">
<metadata>
Created by potrace 1.14, written by Peter Selinger 2001-2017
</metadata>
<g transform="translate(0.000000,640.000000) scale(0.100000,-0.100000)"
fill="#000000" stroke="none">
<path d="M0 6325 c0 -42 4 -74 9 -71 15 10 72 -6 68 -18 -4 -12 -32 -13 -59
-1 -17 7 -18 -11 -18 -290 0 -195 3 -294 10 -290 5 3 10 14 10 24 0 10 7 25
16 32 9 7 20 24 25 37 5 13 13 21 18 17 5 -3 17 5 25 17 11 16 16 18 16 7 0
-8 11 -25 25 -37 29 -25 32 -40 10 -48 -22 -9 -44 13 -38 36 4 14 0 20 -12 20
-15 0 -17 -6 -11 -40 3 -22 2 -40 -3 -40 -5 0 -4 -11 2 -25 15 -31 22 -31 51
0 23 25 46 32 60 18 12 -12 86 -11 86 1 0 15 48 36 82 36 21 0 26 4 21 16 -5
14 -2 16 20 10 19 -4 25 -3 22 6 -4 11 61 60 105 79 9 4 22 14 29 23 7 9 22
16 32 16 11 0 19 5 19 10 0 6 6 10 14 10 17 0 65 39 49 40 -15 0 -18 30 -3 30
5 0 13 -8 19 -17 9 -17 11 -17 38 -1 15 9 31 29 35 45 6 22 13 28 35 28 15 0
34 -4 40 -8 7 -5 20 -4 29 1 11 6 13 11 5 16 -6 4 -11 20 -11 35 0 20 -12 41
-41 69 -22 22 -43 42 -47 44 -4 2 -17 21 -29 43 -13 25 -27 39 -38 37 -14 -3
-14 0 -3 17 8 13 16 17 22 11 6 -6 16 -10 24 -10 12 0 11 4 -2 25 -22 34 -19
45 4 16 11 -13 20 -33 20 -45 0 -17 2 -18 10 -6 8 13 10 13 10 -1 0 -25 25
-30 39 -7 12 20 13 20 32 -1 24 -26 58 -27 65 -3 3 9 19 43 35 74 49 96 76 88
-313 83 -189 -2 -361 -4 -383 -4 -22 -1 -93 2 -157 5 l-118 5 0 -76z m507 9
c-8 -8 -37 20 -37 36 0 6 10 2 22 -10 12 -11 19 -23 15 -26z m162 15 c24 -30
23 -48 -1 -33 -7 5 -22 10 -33 11 -28 5 -38 26 -18 41 22 16 24 16 52 -19z
m224 4 c-7 -3 -13 -19 -14 -36 0 -32 0 -32 -11 -7 -18 41 2 85 27 58 7 -7 6
-12 -2 -15z m-397 -130 c-1 -46 -2 -48 -31 -50 -16 0 -37 -2 -45 -2 -8 -1 -20
-11 -25 -23 -6 -13 -17 -24 -27 -26 -21 -4 -33 31 -19 57 7 11 7 22 2 25 -11
7 -79 -21 -99 -40 -12 -13 -17 -13 -31 -1 -9 8 -23 17 -31 20 -9 3 -5 6 10 6
33 2 74 43 58 59 -9 9 -7 12 10 12 12 0 27 9 34 20 17 26 32 26 25 -1 -5 -18
-2 -20 18 -15 14 4 25 1 27 -6 3 -7 11 1 18 18 21 48 49 55 81 22 22 -23 27
-36 25 -75z m112 12 c2 -21 -1 -42 -7 -48 -16 -16 -26 20 -11 38 9 10 9 15 1
15 -6 0 -11 9 -11 21 0 37 25 14 28 -26z m-148 -85 c0 -5 -4 -10 -10 -10 -5 0
-10 5 -10 10 0 6 5 10 10 10 6 0 10 -4 10 -10z m-250 -48 c0 -14 -23 -32 -40
-31 -9 0 -10 2 -3 5 7 3 9 12 6 20 -3 9 2 14 16 14 12 0 21 -4 21 -8z m320
-21 c-24 -7 -24 -8 -5 -18 16 -9 17 -13 6 -27 -19 -23 -28 -20 -35 11 -8 29 6
43 39 42 16 -1 15 -2 -5 -8z m-141 -118 c-16 -30 -27 -29 -40 4 -9 25 -7 31
18 52 l28 25 3 -29 c2 -15 -2 -39 -9 -52z m140 -42 c0 -16 -3 -20 -6 -11 -4 8
-13 20 -20 25 -10 7 -12 20 -8 38 l7 28 14 -27 c8 -14 14 -38 13 -53z m-489
49 c0 -5 -4 -10 -9 -10 -6 0 -13 5 -16 10 -3 6 1 10 9 10 9 0 16 -4 16 -10z
m270 -4 c0 -18 -16 -29 -30 -21 -13 8 -1 35 16 35 8 0 14 -6 14 -14z m22 -58
c-9 -9 -12 -7 -12 12 0 19 3 21 12 12 9 -9 9 -15 0 -24z m38 -2 c0 -3 -4 -8
-10 -11 -5 -3 -10 -1 -10 4 0 6 5 11 10 11 6 0 10 -2 10 -4z"/>
<path d="M2104 6334 c-58 -64 -167 -134 -211 -134 -9 0 -32 -5 -50 -12 -28
-10 -33 -17 -33 -43 0 -17 -6 -40 -14 -50 -13 -18 -15 -17 -41 9 -26 26 -30
27 -40 12 -7 -9 -18 -16 -26 -16 -27 -1 -51 -28 -44 -49 4 -13 2 -21 -5 -21
-6 0 -9 -4 -5 -10 3 -5 12 -7 20 -4 11 5 59 -14 138 -54 4 -2 7 6 7 17 0 14 6
21 20 21 22 0 28 26 8 33 -7 2 -10 8 -6 12 4 4 14 3 22 -4 10 -8 12 -21 6 -46
-9 -39 -5 -45 25 -45 44 0 56 20 46 77 -8 52 -7 54 23 76 34 26 85 47 129 53
16 2 41 17 57 34 29 31 45 36 69 21 11 -7 10 -13 -4 -34 -19 -30 -17 -72 5
-72 10 0 16 13 18 42 3 35 8 43 33 53 16 7 29 17 29 22 0 18 44 47 52 35 8
-13 42 58 53 111 l7 32 -95 0 c-67 0 -97 -4 -100 -12 -3 -10 -7 -10 -19 -1
-13 11 -24 3 -74 -53z"/>
<path d="M2510 6351 c0 -27 -3 -62 -6 -79 -5 -24 -2 -32 16 -42 29 -16 49 2
42 38 -5 24 -4 26 11 13 9 -7 28 -11 42 -9 14 3 25 1 25 -3 0 -5 -4 -9 -10 -9
-5 0 -10 -4 -10 -10 0 -17 46 -11 63 8 23 25 21 35 -3 27 -23 -7 -25 2 -6 28
12 16 20 17 52 8 53 -15 59 -5 22 39 l-33 40 -102 0 -103 0 0 -49z"/>
<path d="M3384 6392 c-16 -10 1 -52 21 -52 8 0 15 9 15 20 0 11 0 23 1 28 0
10 -24 13 -37 4z"/>
<path d="M3613 6363 c2 -32 -1 -37 -16 -35 -17 3 -17 2 -2 -22 9 -14 15 -36
13 -49 -1 -14 5 -34 15 -45 10 -11 20 -27 21 -36 3 -20 35 -45 59 -46 23 0 21
19 -5 41 -23 21 -30 80 -10 87 7 2 12 8 12 13 0 6 -4 7 -10 4 -5 -3 -10 -1
-10 4 0 6 4 11 9 11 5 0 8 24 7 53 l-1 52 -42 3 -43 3 3 -38z"/>
<path d="M3753 6387 c15 -6 27 -19 27 -29 0 -14 5 -17 24 -12 13 3 27 1 30 -5
10 -16 26 -13 26 4 0 9 -12 18 -30 21 -16 4 -35 13 -41 20 -6 8 -23 14 -38 13
l-26 -1 28 -11z"/>
<path d="M3891 6387 c9 -7 19 -24 23 -39 3 -16 13 -28 20 -28 8 0 22 -3 32 -7
11 -4 15 -3 11 4 -11 18 4 44 29 54 47 17 25 29 -53 29 -63 -1 -75 -3 -62 -13z"/>
<path d="M4210 6365 c0 -27 4 -35 18 -35 9 0 13 -4 7 -8 -16 -11 -14 -82 2
-82 21 0 15 -17 -8 -23 -12 -3 -22 0 -26 9 -3 8 -11 14 -18 14 -16 0 -9 -77 8
-99 9 -10 6 -17 -8 -27 -10 -8 -22 -14 -27 -14 -4 0 -8 -12 -7 -27 0 -25 1
-26 9 -8 7 16 9 12 10 -20 1 -46 23 -94 34 -76 7 10 3 47 -10 94 -4 13 1 17
21 17 29 0 29 5 9 -74 -7 -29 15 -86 34 -86 21 0 49 -33 57 -68 3 -18 11 -30
16 -26 13 8 11 41 -3 48 -7 3 -2 4 11 3 33 -3 36 13 8 54 -25 37 -39 69 -31
69 3 0 19 -10 37 -22 18 -13 34 -24 37 -26 2 -2 -1 -12 -8 -23 -10 -16 -10
-20 3 -25 17 -7 21 -44 5 -44 -5 0 -10 -9 -10 -20 0 -11 -7 -23 -15 -26 -22
-9 -18 -33 8 -44 19 -8 18 -9 -13 -9 -29 -1 -43 7 -73 37 -21 21 -34 41 -31
45 4 4 2 7 -4 7 -16 0 -15 -47 1 -53 9 -3 7 -10 -7 -25 -18 -21 -18 -21 8 -33
22 -10 29 -9 46 6 19 17 20 17 20 0 0 -13 5 -16 25 -11 21 5 25 3 25 -14 0
-14 11 -26 33 -35 17 -8 52 -32 76 -55 30 -28 47 -37 52 -29 4 7 14 9 22 6 9
-3 30 -1 47 6 25 10 33 9 41 -3 8 -11 12 -12 16 -2 2 6 13 12 24 12 16 0 19
-7 19 -55 0 -40 4 -55 14 -55 7 0 19 -7 26 -14 6 -8 28 -20 48 -27 49 -15 58
-25 41 -45 -11 -14 -11 -18 6 -30 22 -16 75 -19 75 -4 0 6 -7 10 -15 10 -8 0
-15 7 -15 15 0 8 -6 15 -12 15 -7 0 -1 8 15 18 29 18 36 42 12 42 -8 0 -15 5
-15 11 0 5 -4 7 -10 4 -5 -3 -10 -2 -10 3 0 9 -38 24 -65 26 -15 1 -18 35 -5
51 10 12 5 16 -29 21 -23 4 -41 12 -41 18 0 6 -3 21 -6 32 -5 19 -2 21 19 17
17 -3 32 2 46 16 12 12 21 23 21 25 0 3 -18 16 -41 29 -22 14 -35 27 -29 29
10 3 10 9 1 25 -16 31 -14 48 12 80 32 40 25 79 -14 87 -19 4 -33 13 -36 26
-6 22 -38 27 -63 9 -13 -9 -13 -10 2 -6 9 4 19 -1 22 -10 8 -20 10 -19 -46
-27 -33 -5 -48 -4 -48 4 0 6 -4 9 -9 6 -4 -3 -16 3 -25 13 -15 16 -15 21 -1
56 9 20 15 38 13 39 -2 1 -15 8 -30 16 -16 7 -28 19 -28 25 0 21 37 46 69 47
18 1 30 4 28 7 -2 3 -10 21 -17 39 -9 19 -22 32 -32 32 -27 0 -68 41 -68 67 0
29 31 31 57 4 32 -34 54 -30 69 11 7 20 10 46 7 57 -5 20 -13 21 -119 21 -100
0 -114 -2 -123 -18 -13 -24 24 -129 54 -156 11 -10 19 -23 17 -28 -4 -16 19
-38 41 -38 19 0 19 -1 3 -19 -16 -18 -16 -21 -1 -44 15 -24 15 -25 -9 -31 -13
-3 -32 -3 -40 0 -17 7 -22 44 -6 44 6 0 10 5 10 10 0 6 -9 10 -20 10 -11 0
-20 6 -20 13 -1 16 -40 -31 -40 -48 0 -7 6 -15 13 -18 7 -2 0 -10 -15 -17 -24
-11 -31 -11 -46 3 -10 10 -24 17 -30 17 -6 0 -9 6 -6 14 3 9 -3 20 -15 28 -22
13 -29 38 -11 38 6 0 10 7 10 16 0 15 65 49 88 45 21 -3 13 22 -18 59 -24 27
-27 36 -16 42 11 6 12 15 3 43 -9 32 -14 35 -49 35 -37 0 -38 -1 -38 -35z
m196 0 c19 -19 8 -41 -12 -24 -14 11 -20 39 -8 39 3 0 12 -7 20 -15z m74 -151
c0 -8 -5 -12 -10 -9 -6 4 -8 11 -5 16 9 14 15 11 15 -7z m0 -219 c0 -43 -14
-45 -34 -3 -20 39 -21 38 9 38 22 0 25 -4 25 -35z m133 -74 c4 -1 7 -8 7 -16
0 -22 -53 -19 -81 4 l-24 19 45 -3 c25 -2 48 -4 53 -4z m65 -67 c22 -15 31
-54 12 -54 -15 0 -50 38 -50 55 0 19 10 19 38 -1z m-210 -6 c9 -1 9 -5 2 -12
-20 -20 -11 -36 18 -30 23 5 30 1 40 -20 10 -22 9 -26 -3 -26 -8 0 -15 -4 -15
-10 0 -17 -28 -11 -42 8 -7 10 -21 21 -31 25 -10 4 -16 11 -13 16 3 5 -1 14
-9 21 -26 22 -19 43 13 36 15 -4 33 -7 40 -8z m182 -185 c0 -10 -4 -14 -8 -8
-4 6 -11 13 -16 18 -5 4 -2 7 7 7 10 0 17 -8 17 -17z"/>
<path d="M3326 6382 c-2 -4 1 -18 8 -31 13 -23 13 -23 14 8 1 29 -11 41 -22
23z"/>
<path d="M4640 6336 c0 -9 5 -16 10 -16 6 0 10 4 10 9 0 6 -4 13 -10 16 -5 3
-10 -1 -10 -9z"/>
<path d="M3360 6322 c0 -6 14 -15 30 -21 24 -8 30 -7 30 5 0 7 -6 14 -14 14
-8 0 -21 3 -30 6 -9 3 -16 2 -16 -4z"/>
<path d="M4881 6314 c8 -10 9 -15 2 -11 -14 9 -45 -2 -37 -14 3 -5 21 -9 40
-9 41 0 46 21 7 39 -24 11 -25 11 -12 -5z"/>
<path d="M1807 6300 c6 -24 51 -50 72 -42 19 7 51 35 51 45 0 5 -18 6 -39 2
-24 -4 -42 -2 -46 4 -3 6 -14 11 -25 11 -13 0 -17 -5 -13 -20z"/>
<path d="M3868 6313 c7 -3 16 -2 19 1 4 3 -2 6 -13 5 -11 0 -14 -3 -6 -6z"/>
<path d="M3752 6288 c5 -15 28 -23 28 -10 0 5 -7 13 -16 16 -10 4 -14 1 -12
-6z"/>
<path d="M1786 6281 c-4 -5 -2 -12 3 -15 5 -4 12 -2 15 3 4 5 2 12 -3 15 -5 4
-12 2 -15 -3z"/>
<path d="M3830 6275 c0 -8 4 -15 10 -15 5 0 7 7 4 15 -4 8 -8 15 -10 15 -2 0
-4 -7 -4 -15z"/>
<path d="M3909 6281 c8 -5 11 -16 8 -24 -4 -11 -1 -14 9 -10 7 3 14 8 14 12 0
11 -23 31 -34 31 -6 0 -5 -4 3 -9z"/>
<path d="M3965 6240 c27 -12 43 -12 25 0 -8 5 -22 9 -30 9 -10 0 -8 -3 5 -9z"/>
<path d="M3732 6213 c2 -9 8 -18 15 -20 7 -3 9 3 6 16 -6 25 -26 28 -21 4z"/>
<path d="M3917 6223 c-10 -10 -8 -25 2 -19 5 3 14 -1 21 -9 7 -8 23 -15 36
-15 24 0 24 1 8 25 -15 24 -52 34 -67 18z"/>
<path d="M867 6203 c-3 -5 3 -24 14 -41 10 -18 19 -38 19 -45 0 -12 21 -34 49
-52 10 -5 12 -4 7 3 -4 7 -1 12 8 12 8 0 16 -6 19 -12 3 -10 9 -8 23 4 17 16
16 18 -10 28 -15 5 -31 10 -35 10 -18 0 -64 45 -76 73 -7 16 -15 25 -18 20z"/>
<path d="M3845 6191 c-3 -5 -1 -12 5 -16 5 -3 10 -19 10 -35 0 -41 10 -60 30
-60 15 0 16 5 6 48 -15 66 -34 89 -51 63z"/>
<path d="M3520 6170 c0 -5 5 -10 11 -10 5 0 7 5 4 10 -3 6 -8 10 -11 10 -2 0
-4 -4 -4 -10z"/>
<path d="M3945 6150 c3 -5 10 -10 16 -10 5 0 9 5 9 10 0 6 -7 10 -16 10 -8 0
-12 -4 -9 -10z"/>
<path d="M4565 6110 c3 -5 22 -10 41 -10 24 0 34 -4 34 -16 0 -10 7 -14 23
-12 12 2 22 10 22 18 0 10 -8 14 -22 13 -13 -2 -23 2 -23 7 0 6 -18 10 -41 10
-24 0 -38 -4 -34 -10z"/>
<path d="M4757 6103 c-12 -11 -8 -23 8 -23 8 0 15 7 15 15 0 16 -12 20 -23 8z"/>
<path d="M2720 6092 c0 -7 -6 -12 -14 -12 -7 0 -20 -9 -27 -20 -8 -11 -24 -21
-37 -23 -12 -2 -27 -8 -33 -14 -19 -19 -12 -93 15 -144 14 -27 22 -57 19 -68
-4 -15 4 -31 26 -53 17 -17 31 -37 31 -43 0 -19 -32 -109 -47 -130 -7 -11 -13
-30 -13 -43 0 -21 3 -23 28 -17 36 9 48 22 61 69 7 28 7 43 -1 53 -8 10 -6 13
11 13 17 0 21 -5 17 -17 -3 -10 -7 -35 -10 -55 -4 -21 -9 -54 -12 -74 -5 -33
-4 -35 16 -29 12 4 43 23 70 43 50 37 140 68 140 48 0 -19 -14 -33 -48 -50
-27 -14 -31 -20 -22 -31 7 -8 9 -19 5 -25 -9 -14 -52 -13 -57 2 -3 8 -14 2
-32 -15 -35 -35 -31 -67 9 -86 17 -8 34 -20 38 -28 4 -7 18 -13 30 -13 13 0
28 -5 34 -11 7 -7 19 -3 39 14 92 75 226 86 363 30 10 -4 11 0 6 17 -5 16 -4
20 5 15 7 -4 13 1 17 13 3 13 11 18 23 15 28 -7 36 32 12 62 -11 13 -22 21
-26 18 -4 -4 -9 3 -12 14 -4 12 -16 23 -28 25 -17 2 -24 15 -37 67 -9 36 -22
67 -31 70 -15 6 -36 23 -69 56 l-20 20 3 -40 c3 -38 4 -40 36 -39 18 1 32 -3
32 -10 0 -17 -36 -67 -42 -60 -10 10 -48 -6 -48 -20 0 -7 -11 -23 -25 -36 -21
-20 -27 -21 -42 -9 -10 8 -21 18 -24 22 -4 5 -23 9 -43 10 -45 1 -49 25 -3 27
103 4 118 0 97 -25 -11 -13 -10 -14 3 -9 17 6 32 33 36 64 0 6 6 9 12 8 6 -2
14 3 17 11 3 10 0 12 -12 8 -13 -5 -16 0 -16 23 0 26 -4 30 -29 30 -41 0 -46
24 -12 63 88 101 114 222 52 242 -12 3 -21 12 -21 20 0 17 -43 45 -70 45 -11
0 -20 5 -20 10 0 13 -51 13 -84 0 -15 -5 -35 -6 -48 -1 -24 9 -78 -5 -90 -23
-6 -8 -11 -6 -17 3 -8 12 -12 13 -25 2 -14 -12 -19 -10 -36 9 -11 13 -20 18
-20 12z m64 -358 c9 -3 16 -14 16 -24 0 -13 6 -16 28 -13 26 4 26 4 8 -11 -22
-17 -73 -21 -95 -7 -9 6 -11 18 -7 35 6 26 20 31 50 20z m286 -54 c-24 -15
-37 -11 -16 5 11 8 22 12 25 9 3 -3 -1 -9 -9 -14z m-213 -66 c4 -13 -32 -25
-52 -17 -8 2 -11 11 -8 19 6 17 54 15 60 -2z m-60 -46 c-3 -8 -6 -5 -6 6 -1
11 2 17 5 13 3 -3 4 -12 1 -19z m480 6 c2 -5 -8 -9 -21 -9 -19 0 -22 3 -14 13
12 14 30 12 35 -4z m-123 -69 c11 -8 15 -15 9 -15 -19 0 -43 12 -43 21 0 13
12 11 34 -6z"/>
<path d="M1490 6083 c-14 -3 -34 -13 -45 -23 -16 -15 -37 -18 -107 -19 -128
-1 -134 -7 -98 -86 20 -42 26 -43 11 -2 -9 23 -7 25 27 30 87 13 198 40 212
52 8 7 25 16 37 19 11 4 27 13 33 21 11 13 8 15 -16 14 -16 -1 -40 -4 -54 -6z"/>
<path d="M3347 6072 c-28 -6 -19 -19 16 -25 17 -2 32 -4 33 -3 5 7 -35 30 -49
28z"/>
<path d="M3920 6071 c0 -12 29 -35 36 -28 11 10 -5 37 -21 37 -8 0 -15 -4 -15
-9z"/>
<path d="M3596 6057 c3 -10 9 -15 12 -12 3 3 0 11 -7 18 -10 9 -11 8 -5 -6z"/>
<path d="M4840 6035 c0 -16 16 -20 24 -6 3 5 -1 11 -9 15 -9 3 -15 0 -15 -9z"/>
<path d="M3660 5985 c0 -8 7 -15 15 -15 8 0 15 4 15 9 0 5 -7 11 -15 15 -9 3
-15 0 -15 -9z"/>
<path d="M4770 5996 c0 -2 6 -9 14 -15 10 -9 16 -8 26 4 11 13 8 15 -14 15
-14 0 -26 -2 -26 -4z"/>
<path d="M2231 5966 c-7 -8 -10 -24 -6 -35 9 -30 60 -13 60 20 0 29 -35 38
-54 15z"/>
<path d="M1563 5960 c-15 -6 -23 -18 -23 -34 0 -32 -17 -42 -38 -23 -34 29
-82 31 -82 3 0 -15 -52 -66 -67 -66 -6 0 -13 -5 -15 -12 -6 -17 -28 0 -28 23
0 10 -9 28 -20 39 -20 20 -24 18 -21 -12 3 -27 -13 -22 -37 12 -28 37 -47 39
-38 4 4 -14 11 -31 17 -37 28 -34 63 -97 90 -162 17 -41 38 -76 46 -79 16 -7
66 27 56 38 -3 3 -14 6 -24 6 -9 0 -20 7 -23 15 -4 12 -2 14 10 7 10 -5 32 -6
53 -1 55 13 67 11 92 -16 28 -29 83 -43 103 -26 8 7 14 27 13 44 -1 18 6 41
16 52 79 90 87 96 87 70 0 -9 7 -18 15 -21 24 -10 17 -22 -20 -35 -35 -13 -35
-14 -29 -54 5 -35 2 -44 -20 -67 l-26 -25 38 -34 c55 -49 82 -89 95 -145 11
-42 18 -52 51 -68 44 -22 86 -10 86 24 0 21 15 27 25 10 8 -14 61 -13 102 2
32 12 33 13 31 68 -2 61 -19 91 -49 83 -13 -4 -19 0 -19 11 0 21 -9 20 -72 -4
-30 -11 -56 -16 -61 -11 -10 10 17 57 38 65 8 3 31 30 50 61 23 35 42 55 55
55 10 0 31 10 45 23 25 21 26 27 20 71 -7 44 -10 47 -31 43 -21 -4 -24 0 -24
25 0 23 -4 29 -15 24 -9 -3 -15 0 -15 9 0 18 -28 26 -87 25 -26 0 -59 1 -72 2
-19 3 -26 -3 -35 -32 -16 -52 -28 -66 -59 -74 -17 -4 -26 -3 -23 3 3 5 -1 12
-10 15 -13 5 -14 8 -1 27 17 23 11 59 -9 59 -8 0 -14 -5 -14 -10 0 -7 -7 -7
-20 0 -11 6 -24 9 -29 6 -5 -3 -16 3 -26 14 -20 22 -21 22 -52 10z m-268 -150
c3 -5 1 -10 -4 -10 -6 0 -11 5 -11 10 0 6 2 10 4 10 3 0 8 -4 11 -10z m85 -30
c6 -11 17 -20 25 -20 18 0 20 -16 4 -26 -7 -4 -16 1 -21 10 -5 9 -16 16 -23
16 -8 0 -15 9 -15 20 0 11 4 20 10 20 5 0 14 -9 20 -20z m-40 -43 c0 -23 -2
-22 -19 10 -10 19 -9 22 4 17 8 -4 15 -15 15 -27z m560 -23 c0 -8 -9 -14 -20
-14 -22 0 -28 26 -7 33 16 6 27 -1 27 -19z m-94 -9 c-4 -16 -2 -25 6 -25 9 0
9 -3 0 -12 -10 -10 -14 -10 -21 0 -5 9 -17 11 -36 6 -20 -5 -26 -4 -21 5 4 6
15 11 25 11 10 0 21 9 24 20 3 11 11 20 17 20 8 0 10 -9 6 -25z"/>
<path d="M4180 5935 c0 -8 5 -15 10 -15 6 0 10 7 10 15 0 8 -4 15 -10 15 -5 0
-10 -7 -10 -15z"/>
<path d="M3722 5878 c2 -13 11 -24 20 -26 14 -3 15 0 5 22 -15 32 -30 34 -25
4z"/>
<path d="M3960 5886 c0 -14 36 -46 52 -46 5 0 3 10 -4 23 -21 37 -48 50 -48
23z"/>
<path d="M2436 5868 c-11 -37 -19 -252 -12 -292 7 -34 10 -37 32 -32 24 6 35
-9 12 -16 -9 -3 -9 -6 0 -12 7 -4 12 -3 12 3 0 7 8 7 25 1 16 -6 25 -6 25 0 0
6 6 10 14 10 8 0 16 6 19 14 3 8 18 16 34 19 28 4 28 4 -3 6 -19 0 -34 8 -38
17 -10 26 -7 32 15 27 18 -5 20 -3 14 16 -5 16 -2 21 13 21 15 0 22 11 31 44
14 57 14 61 -3 47 -10 -9 -19 -3 -40 29 -14 22 -31 40 -36 40 -6 0 -10 11 -10
24 0 34 -25 56 -65 56 -25 0 -34 -5 -39 -22z"/>
<path d="M880 5850 c0 -24 -18 -26 -48 -4 -35 24 -87 3 -103 -41 -9 -25 -18
-34 -33 -32 -21 2 -22 0 -24 -60 -2 -28 -6 -33 -26 -33 -24 0 -36 -16 -36 -51
0 -10 -4 -19 -10 -19 -18 0 -10 -29 12 -44 20 -14 23 -14 36 5 8 11 16 39 18
61 2 24 12 49 24 60 11 10 22 29 25 41 5 17 14 22 45 24 23 2 43 -3 50 -12 16
-19 5 -34 -21 -28 -27 7 -65 -33 -61 -65 4 -25 38 -48 66 -43 10 1 31 -3 48
-10 22 -9 32 -9 41 0 15 15 9 82 -10 103 -18 20 -6 43 28 53 25 8 24 35 -1 42
-21 6 -27 28 -10 38 6 3 10 13 10 21 0 8 -4 14 -10 14 -5 0 -10 -9 -10 -20z
m-10 -180 c0 -5 -4 -10 -9 -10 -6 0 -13 5 -16 10 -3 6 1 10 9 10 9 0 16 -4 16
-10z"/>
<path d="M4160 5865 c0 -13 31 -36 41 -33 7 2 0 12 -15 21 -14 10 -26 15 -26
12z"/>
<path d="M3720 5780 c0 -5 5 -10 11 -10 5 0 7 5 4 10 -3 6 -8 10 -11 10 -2 0
-4 -4 -4 -10z"/>
<path d="M2280 5746 c0 -39 -59 -59 -90 -31 -9 8 -31 18 -48 21 -28 6 -32 4
-32 -14 0 -26 6 -29 66 -38 63 -8 64 -9 64 -48 0 -49 -19 -70 -53 -57 -16 6
-32 11 -36 11 -9 0 -35 -51 -33 -62 1 -5 -5 -8 -14 -8 -12 0 -15 -6 -11 -22 3
-13 9 -40 13 -61 3 -21 13 -41 21 -44 8 -3 12 -12 9 -19 -8 -21 38 -28 70 -11
23 12 33 28 47 77 34 113 58 320 38 320 -6 0 -11 -6 -11 -14z"/>
<path d="M4838 5719 c-10 -5 -18 -17 -18 -25 0 -8 -4 -13 -9 -10 -10 7 -26
-52 -17 -61 3 -4 6 1 6 9 0 18 41 48 65 48 9 0 15 9 15 25 0 26 -14 31 -42 14z"/>
<path d="M1186 5711 c-3 -5 1 -11 9 -15 9 -3 15 0 15 9 0 16 -16 20 -24 6z"/>
<path d="M4060 5709 c0 -16 26 -39 45 -39 14 0 14 2 -1 25 -16 25 -44 34 -44
14z"/>
<path d="M3294 5684 c3 -9 6 -21 6 -27 0 -6 8 -3 18 6 15 16 15 19 2 27 -22
14 -33 12 -26 -6z"/>
<path d="M3490 5692 c0 -11 39 -52 49 -52 19 0 17 13 -6 36 -24 24 -43 31 -43
16z"/>
<path d="M4305 5690 c-3 -5 -1 -10 4 -10 6 0 11 5 11 10 0 6 -2 10 -4 10 -3 0
-8 -4 -11 -10z"/>
<path d="M3303 5626 c4 -10 7 -27 7 -39 0 -16 3 -18 9 -8 10 15 3 48 -12 58
-7 4 -8 0 -4 -11z"/>
<path d="M1076 5615 c4 -8 16 -15 27 -15 20 0 20 0 1 15 -25 19 -35 19 -28 0z"/>
<path d="M0 5611 c0 -10 50 -25 58 -17 2 3 -7 10 -22 16 -33 12 -36 12 -36 1z"/>
<path d="M3359 5576 c-10 -21 -9 -30 6 -52 22 -35 40 -18 31 30 -9 45 -23 54
-37 22z"/>
<path d="M4105 5590 c-3 -5 1 -10 10 -10 9 0 13 5 10 10 -3 6 -8 10 -10 10 -2
0 -7 -4 -10 -10z"/>
<path d="M4417 5593 c-12 -11 -8 -23 8 -23 8 0 15 7 15 15 0 16 -12 20 -23 8z"/>
<path d="M1200 5574 c0 -8 5 -12 10 -9 6 4 8 11 5 16 -9 14 -15 11 -15 -7z"/>
<path d="M1246 5565 c-20 -30 -20 -45 -2 -45 16 0 46 37 46 57 0 22 -27 14
-44 -12z"/>
<path d="M1035 5537 l-27 -23 41 -39 c29 -29 37 -42 30 -52 -8 -9 -4 -12 16
-10 35 3 56 -26 35 -47 -18 -18 -54 -25 -55 -11 -1 24 -19 35 -60 35 -45 0
-62 -12 -57 -42 2 -11 -9 -21 -33 -29 -19 -7 -35 -17 -35 -22 0 -8 16 -30 61
-84 15 -19 23 -16 73 25 70 58 197 94 208 60 8 -22 -4 -58 -18 -58 -8 0 -14
-4 -14 -9 0 -5 -7 -11 -16 -13 -15 -3 -24 -32 -27 -90 -1 -21 -2 -21 -27 -8
-15 8 -21 6 -29 -7 -9 -15 -12 -16 -20 -4 -8 12 -12 12 -26 -2 -21 -22 -59
-23 -51 -2 6 17 -19 21 -30 4 -3 -6 -14 7 -24 29 -10 22 -27 45 -38 51 -27 15
-29 14 -35 -8 -3 -13 -15 -21 -36 -23 l-31 -3 25 -37 c31 -46 31 -52 -2 -44
-16 5 -29 3 -33 -5 -11 -17 -30 -1 -30 25 0 16 -7 26 -21 29 -11 3 -23 15 -26
26 -6 24 -49 39 -65 23 -8 -8 -15 -7 -23 5 -7 10 -19 14 -29 10 -23 -9 -20
-37 5 -37 12 0 17 -4 13 -11 -3 -6 -15 -9 -25 -6 -13 4 -26 -4 -41 -25 -21
-30 -22 -30 -29 -9 -5 11 -13 21 -18 21 -5 0 -13 9 -16 20 -7 24 -21 26 -29 5
-7 -18 39 -109 76 -149 34 -37 29 -45 -12 -16 l-31 22 6 -25 c4 -14 2 -28 -5
-32 -6 -4 -8 -15 -5 -25 7 -23 -26 -36 -54 -21 -11 6 -29 11 -41 11 -29 0 -35
23 -20 76 9 30 10 48 3 52 -5 4 -15 17 -22 30 -12 23 -45 30 -56 11 -4 -6 1
-17 11 -24 11 -8 14 -15 8 -15 -6 0 -11 -15 -11 -32 -1 -18 1 -27 4 -20 7 20
33 -5 33 -32 0 -12 4 -26 8 -31 8 -9 32 -84 32 -98 0 -3 -7 -12 -15 -21 -14
-14 -14 -19 5 -56 16 -32 18 -40 6 -40 -36 0 -26 -36 23 -92 31 -35 41 -35 41
-2 0 22 2 25 15 14 17 -14 20 -40 5 -40 -5 0 -10 -9 -10 -21 0 -14 -10 -24
-30 -32 -30 -11 -39 -30 -20 -42 14 -9 13 -28 -2 -23 -6 2 -12 12 -14 22 -3
20 -32 56 -46 56 -4 0 -6 -11 -2 -25 5 -19 2 -25 -9 -25 -18 0 -22 -5 -31 -44
-6 -23 -4 -27 8 -23 9 4 16 1 16 -6 1 -7 6 -4 14 6 12 15 14 16 20 2 6 -16
-12 -65 -24 -65 -4 0 -10 8 -13 19 -2 10 -18 24 -35 32 -17 7 -33 22 -36 32
-2 11 -9 16 -15 12 -17 -10 -13 -23 13 -46 14 -12 30 -35 37 -53 19 -48 39
-68 56 -55 20 17 25 6 7 -19 -8 -12 -24 -22 -34 -22 -23 0 -36 -42 -45 -142
-5 -47 -12 -72 -23 -80 -61 -46 -90 -218 -73 -438 2 -25 3 -81 1 -125 -3 -106
-2 -108 14 -102 15 6 36 -13 55 -51 18 -34 -4 -127 -41 -174 -28 -37 -28 -37
-30 -195 -2 -263 -1 -274 22 -280 15 -4 20 -14 20 -42 0 -20 5 -43 10 -51 8
-12 10 -12 10 -1 0 9 10 3 25 -13 28 -31 33 -79 10 -102 -8 -9 -15 -29 -15
-45 0 -16 -4 -29 -10 -29 -5 0 -10 6 -10 14 0 7 -18 33 -40 56 -36 38 -45 39
-41 3 1 -6 -5 -45 -14 -85 -8 -40 -15 -87 -15 -105 0 -17 -4 -34 -9 -38 -6 -3
-10 -38 -10 -78 0 -40 -5 -85 -10 -100 -6 -15 -13 -53 -16 -85 -7 -63 -33
-144 -45 -137 -5 3 -6 -4 -3 -14 3 -11 -4 -28 -16 -40 -12 -12 -21 -30 -21
-42 0 -19 4 -20 37 -14 53 9 117 7 121 -4 5 -14 32 -1 32 15 0 7 18 19 40 25
22 7 40 16 40 20 0 4 16 5 35 2 l35 -6 0 42 c0 23 -7 55 -16 72 -8 17 -12 39
-9 51 8 23 -12 105 -30 128 -15 18 -36 80 -28 80 3 0 1 6 -4 12 -6 7 -13 26
-17 43 l-8 30 21 -27 c12 -14 21 -30 21 -36 0 -5 13 -27 28 -48 16 -21 31 -46
35 -54 4 -8 15 -27 25 -42 9 -15 35 -55 56 -90 70 -112 90 -122 209 -108 113
13 151 26 184 60 15 17 43 35 62 41 18 6 29 14 24 18 -6 3 -11 32 -12 63 -1
49 2 60 24 82 14 14 34 25 44 23 27 -4 91 -63 91 -84 0 -10 17 -29 37 -42 l37
-24 21 28 c11 15 30 39 43 53 18 20 22 22 22 8 0 -54 -119 -181 -250 -268 -92
-60 -100 -65 -150 -90 -63 -32 -126 -78 -188 -136 -29 -27 -71 -55 -93 -62
-51 -17 -77 -53 -75 -105 1 -22 -3 -43 -9 -47 -5 -4 -11 -52 -11 -107 -1 -99
-12 -131 -43 -131 -6 0 -22 -25 -36 -55 l-25 -56 22 -39 c22 -37 53 -60 82
-60 8 0 24 -21 36 -47 16 -35 21 -59 17 -97 -5 -58 -26 -118 -52 -148 l-17
-21 -22 24 c-11 13 -29 36 -39 51 -9 15 -23 25 -30 23 -6 -3 -17 5 -22 17 -6
14 -19 23 -32 24 -21 1 -23 -3 -23 -47 0 -37 -4 -49 -15 -49 -23 0 -30 4 -28
15 6 38 14 60 27 80 12 18 13 29 4 52 -9 24 -7 44 12 109 12 43 25 106 29 139
3 33 10 66 15 74 5 8 10 37 12 64 2 48 19 94 38 108 4 4 9 31 10 60 l1 54 -62
0 c-69 0 -70 1 -76 35 -3 14 -7 32 -9 40 -2 10 10 16 42 21 53 7 80 2 80 -17
0 -26 46 -27 96 -1 43 22 46 25 26 31 -12 4 -26 4 -32 1 -5 -3 -10 -2 -10 4 0
5 -10 12 -22 16 -41 11 -68 28 -68 42 0 16 -47 17 -87 2 -15 -6 -52 -15 -82
-20 -30 -5 -57 -12 -60 -16 -3 -5 -15 -13 -26 -19 -11 -6 -21 -23 -23 -38 -2
-15 -10 -30 -18 -33 -22 -8 -19 -80 4 -86 16 -4 16 -5 0 -6 -17 -1 -18 -40
-18 -676 l0 -675 85 0 c52 0 85 4 85 10 0 6 -10 49 -21 96 -20 78 -20 88 -7
123 13 32 13 41 2 56 -16 22 -19 95 -4 95 6 0 10 5 10 10 0 6 -7 10 -16 10 -8
0 -12 5 -9 10 3 6 18 10 32 10 19 0 24 -4 19 -16 -10 -27 14 -90 34 -90 10 0
16 4 14 8 -3 5 -3 16 1 27 4 13 12 17 29 14 17 -4 28 1 38 16 18 29 28 26 28
-6 0 -17 -3 -23 -8 -16 -4 7 -12 9 -17 5 -12 -8 -15 -53 -3 -46 4 3 8 -7 8
-23 0 -19 -3 -24 -9 -15 -7 11 -9 11 -14 -2 -9 -23 1 -60 20 -74 15 -11 19 -9
25 8 4 11 5 26 2 33 -3 8 12 22 36 36 46 26 51 41 14 41 -22 0 -25 2 -14 15 7
8 19 15 26 15 17 0 19 81 3 111 -18 34 14 57 47 36 7 -4 15 -27 18 -52 4 -25
12 -45 18 -45 6 0 19 -7 28 -15 10 -9 30 -17 46 -19 16 -2 45 -7 65 -11 33 -6
38 -4 73 39 20 25 45 46 55 46 29 0 84 26 105 49 11 12 29 21 41 21 12 0 30 9
40 20 10 11 14 20 9 20 -5 0 5 9 21 20 17 11 38 20 47 20 17 0 68 44 68 59 0
5 -7 14 -15 21 -8 7 -15 21 -15 31 0 11 -7 19 -15 19 -8 0 -15 5 -15 10 0 6 7
13 15 16 8 4 15 13 15 22 0 8 15 28 33 43 31 26 31 28 15 46 -10 11 -18 24
-18 30 0 6 -7 13 -15 17 -23 8 -18 24 13 40 15 8 23 15 19 16 -5 0 3 14 17 31
27 31 33 49 17 49 -5 0 -18 16 -30 36 -17 29 -23 33 -34 22 -7 -7 -16 -21 -20
-30 -7 -19 -27 -25 -27 -8 0 18 -59 40 -107 40 -57 0 -47 21 11 23 31 1 38 5
42 26 3 15 7 31 9 37 4 13 -51 38 -69 31 -7 -3 -17 -2 -22 3 -5 4 -37 11 -71
15 -62 7 -63 7 -73 -22 -16 -42 -36 -53 -71 -41 -32 11 -99 3 -99 -12 0 -10
-83 -14 -92 -4 -11 10 16 63 38 73 12 5 25 19 29 31 4 13 12 19 21 16 8 -3 13
-2 9 3 -6 11 46 50 60 45 22 -8 95 78 95 112 0 9 8 23 18 30 16 12 15 15 -10
37 -31 27 -22 47 19 47 13 0 26 7 29 15 4 9 11 15 18 14 27 -3 36 3 36 24 0
33 27 54 91 73 30 9 58 20 63 25 6 5 19 9 30 9 31 0 85 37 96 65 5 14 17 28
25 31 8 4 15 10 15 15 0 5 12 28 26 50 41 66 75 129 69 129 -3 0 -1 9 5 20 7
13 8 26 1 38 -7 12 -5 22 4 32 8 9 17 35 21 58 5 33 3 42 -8 42 -8 0 -19 -5
-25 -11 -8 -8 -24 -4 -60 15 -26 14 -60 30 -75 35 -33 12 -34 20 -8 54 11 14
20 30 20 36 0 7 8 14 18 18 9 3 28 15 40 27 19 17 35 21 83 19 32 -1 69 1 81
6 19 7 26 3 41 -21 13 -22 24 -29 37 -25 13 3 20 0 20 -9 0 -10 7 -13 24 -8
13 3 40 -2 61 -10 51 -22 64 -20 87 9 11 14 27 25 37 25 10 0 32 18 50 40 17
22 37 40 43 40 7 0 21 9 32 19 26 24 118 61 152 61 14 0 43 -9 65 -20 22 -12
44 -18 48 -15 5 2 14 -2 21 -10 7 -8 21 -15 30 -15 10 0 20 -4 22 -10 2 -5 18
-11 37 -12 18 -1 36 -8 38 -16 3 -7 11 -11 18 -8 18 7 30 -5 52 -54 33 -72 51
-151 45 -195 -5 -36 -6 -38 -13 -15 -5 19 -7 13 -8 -26 -1 -50 -22 -97 -34
-77 -10 16 -56 3 -72 -20 -14 -20 -15 -19 -15 26 0 41 3 47 25 53 14 3 25 13
25 21 0 15 -33 10 -57 -9 -7 -5 -27 -7 -45 -2 -18 4 -51 8 -73 9 -22 1 -50 5
-63 9 -14 5 -29 3 -37 -4 -12 -10 -15 -9 -15 4 0 28 -40 -20 -47 -57 -3 -18
-10 -37 -15 -43 -4 -6 -5 -19 -2 -29 6 -14 3 -16 -17 -10 l-24 7 22 -17 c32
-23 29 -36 -7 -29 -18 4 -36 1 -45 -6 -12 -10 -20 -6 -48 24 -19 20 -32 36
-30 36 3 0 -2 11 -11 25 -9 14 -12 25 -6 25 5 0 22 -19 36 -41 14 -23 29 -37
33 -32 3 6 13 12 21 15 10 3 5 14 -22 40 -20 20 -38 42 -41 50 -3 10 -9 8 -21
-7 -13 -17 -17 -18 -26 -5 -14 22 -12 60 4 66 32 12 24 134 -9 134 -11 0 -16
-11 -30 -62 -2 -5 -3 -17 -4 -28 -1 -14 -8 -20 -23 -20 -30 -1 -65 -27 -52
-40 5 -5 20 -11 34 -13 19 -3 29 -17 51 -70 15 -37 34 -77 42 -90 14 -22 13
-25 -12 -45 -15 -12 -42 -48 -59 -81 l-31 -59 34 -16 c42 -20 89 -21 105 -1 7
8 19 15 26 15 8 0 14 5 14 10 0 7 29 8 83 4 158 -11 188 -12 215 -5 15 4 27
15 27 24 0 25 14 32 22 11 17 -45 112 -118 139 -107 8 3 23 -2 33 -11 11 -10
37 -16 73 -17 68 -2 139 30 177 79 14 19 33 43 41 54 15 19 16 19 55 -17 39
-36 81 -60 99 -56 5 1 16 -5 25 -12 35 -31 205 -28 186 3 -3 5 2 10 12 11 10
1 27 2 38 3 11 0 19 7 18 14 -2 6 5 12 15 12 21 0 51 42 33 48 -6 2 -11 11
-11 19 0 14 -2 14 -18 0 -10 -10 -28 -17 -40 -17 -11 0 -29 -11 -40 -25 -22
-28 -53 -32 -72 -10 -14 17 -15 17 24 33 15 7 37 10 47 7 16 -5 19 -1 19 25 0
17 5 41 11 53 9 16 9 22 0 25 -6 2 -11 13 -11 24 0 20 -3 20 -70 5 -3 -1 -18
7 -33 17 -22 15 -33 17 -50 9 -54 -25 -79 -33 -89 -27 -7 5 -4 12 8 21 17 12
21 29 27 99 2 15 7 19 21 16 13 -4 17 -1 12 7 -5 7 -1 18 9 25 10 7 16 19 13
26 -2 7 8 26 23 43 15 16 29 44 32 62 5 32 56 95 76 95 38 0 130 -48 168 -88
40 -40 46 -44 66 -33 13 7 35 40 51 73 50 110 55 219 15 300 -11 21 -19 40
-19 43 0 3 24 5 54 5 66 0 176 33 201 60 10 11 23 20 29 21 15 1 81 79 67 79
-7 0 -8 8 -2 23 11 29 -3 57 -29 57 -13 0 -20 7 -20 20 0 17 -7 20 -39 20 -33
0 -40 -4 -44 -22 l-4 -23 -2 23 c-1 24 -20 29 -39 10 -9 -9 -12 -7 -12 10 0
12 5 22 10 22 6 0 10 5 10 10 0 6 -7 10 -15 10 -8 0 -35 19 -60 43 -39 38 -42
44 -27 54 16 10 16 12 0 30 -11 12 -18 36 -18 62 0 23 -4 40 -9 37 -5 -4 -12
7 -16 24 -4 16 -10 30 -14 30 -4 0 -17 -19 -29 -43 -12 -23 -31 -53 -42 -67
l-20 -25 9 26 c12 34 -1 58 -23 40 -13 -11 -16 -11 -16 3 0 9 -7 16 -15 16 -8
0 -15 8 -15 18 0 10 -6 27 -14 37 -11 15 -17 17 -28 8 -10 -9 -20 -9 -38 0
-25 12 -41 57 -21 57 6 0 18 17 27 38 13 31 17 34 23 19 5 -13 11 1 20 47 l13
65 28 -14 c27 -14 60 -48 91 -94 l15 -24 37 39 c52 55 87 170 57 189 -5 3 -10
19 -10 34 0 16 -7 34 -15 41 -8 7 -15 20 -15 29 0 9 -8 23 -18 32 -9 8 -23 35
-31 59 -7 25 -17 53 -23 64 -7 14 -6 16 3 10 9 -5 10 -2 6 10 -6 14 -2 17 25
14 30 -3 34 1 62 56 25 48 30 70 29 118 -1 59 -16 94 -31 73 -8 -12 -58 -45
-67 -45 -4 0 -4 4 -1 9 3 5 -5 17 -19 27 -13 10 -27 31 -31 47 -3 17 -14 32
-25 34 -21 6 -25 18 -9 28 13 8 13 52 0 60 -5 3 -10 15 -10 25 0 10 -5 20 -11
22 -14 5 0 38 17 38 8 0 14 5 14 10 0 6 -4 10 -10 10 -5 0 -10 17 -10 38 -1
20 -7 63 -14 94 -14 59 -10 73 18 62 12 -4 16 0 16 15 0 12 6 21 15 21 14 0
14 4 0 37 -8 20 -13 38 -11 40 2 2 34 11 71 18 66 14 155 57 155 75 0 5 -4 12
-10 15 -21 13 -9 24 16 15 35 -14 39 -13 23 7 -11 13 -11 17 -1 20 14 5 16 33
2 33 -16 0 -12 66 7 107 23 50 23 50 34 33 10 -16 3 61 -8 90 -7 17 -10 27
-12 38 -1 8 -54 42 -65 42 -4 0 -11 -12 -16 -26 -10 -25 -10 -25 -34 -7 -37
29 -77 22 -99 -16 -15 -28 -16 -35 -4 -45 12 -9 12 -15 1 -36 -13 -25 -14 -25
-14 -2 0 12 -4 22 -10 22 -5 0 -10 -4 -10 -10 0 -5 -15 -8 -34 -6 -19 1 -33
-1 -30 -6 3 -4 0 -8 -5 -8 -16 0 -13 -28 3 -37 7 -4 19 -19 26 -33 10 -21 10
-23 -1 -12 -7 6 -20 12 -28 11 -12 0 -10 -4 7 -16 30 -21 28 -34 -2 -20 -26
12 -36 34 -36 77 0 14 -7 35 -15 47 -13 19 -19 20 -45 10 -21 -8 -30 -18 -30
-34 0 -13 -4 -23 -10 -23 -5 0 -10 18 -10 40 0 31 -3 38 -15 34 -8 -4 -15 -15
-15 -25 0 -10 -7 -19 -15 -19 -9 0 -15 -9 -15 -21 0 -14 -5 -19 -14 -16 -8 3
-17 1 -20 -6 -2 -7 -5 3 -5 22 -1 29 -3 32 -16 21 -13 -11 -15 -5 -15 47 0 33
3 63 7 67 4 3 12 21 19 39 6 17 15 41 19 52 5 15 4 16 -3 6 -8 -11 -12 -10
-23 8 -20 31 -29 26 -22 -14 3 -22 2 -35 -5 -35 -6 0 -13 -10 -15 -22 l-4 -23
-2 23 c0 12 -7 22 -15 22 -8 0 -17 8 -19 18 -3 9 -2 -10 0 -43 5 -59 5 -61
-23 -74 -16 -7 -64 -15 -106 -18 -68 -3 -78 -2 -78 13 0 12 -6 15 -25 10 -14
-4 -25 -2 -25 4 0 5 -11 10 -24 10 -35 0 -56 10 -56 26 0 8 -6 15 -12 15 -7 1
-19 2 -27 3 -22 2 -25 24 -4 30 10 3 -1 3 -24 0 -29 -4 -43 -2 -43 6 0 6 -17
-6 -39 -26 -45 -44 -80 -54 -88 -24 -7 25 -19 26 -32 1 -6 -10 -22 -22 -36
-25 -14 -4 -25 -11 -25 -17 0 -6 -4 -8 -9 -4 -5 3 -12 1 -16 -5 -3 -5 -21 -10
-40 -10 -19 0 -37 -4 -40 -10 -10 -16 -65 -12 -71 5 -9 22 -71 19 -100 -4 -18
-14 -32 -17 -52 -12 -25 7 -27 12 -26 54 0 35 8 58 30 90 21 30 28 49 24 66
l-6 24 -17 -27 c-10 -14 -22 -24 -27 -21 -4 3 -16 -2 -25 -11 -20 -20 -33 -11
-15 11 10 13 9 15 -9 15 -11 0 -21 5 -21 12 0 21 -53 68 -76 68 -12 0 -25 -7
-28 -16 -5 -12 -14 -15 -37 -10 -19 4 -38 0 -53 -9 -19 -13 -31 -13 -75 -3
-28 6 -51 15 -51 20 0 4 -18 8 -40 8 -22 0 -40 5 -40 10 0 6 5 10 10 10 6 0
10 7 10 15 0 17 -17 20 -22 4 -2 -7 -12 -7 -31 2 -26 12 -27 16 -21 54 5 38 3
43 -16 48 -17 4 -24 1 -27 -14 -4 -13 -11 -18 -20 -15 -8 3 -17 6 -19 6 -2 0
-4 9 -4 19 0 24 -16 36 -23 19 -4 -9 -6 -8 -6 2 -1 14 -34 50 -46 50 -2 0 -16
-10 -30 -23z m-11 -212 c11 -8 15 -15 10 -15 -6 0 -19 7 -30 15 -10 8 -14 14
-9 14 6 0 19 -6 29 -14z m-269 -224 c3 -5 1 -12 -5 -16 -17 -10 -11 -39 10
-53 13 -8 20 -23 20 -42 0 -30 0 -30 -25 -14 -22 14 -25 14 -25 1 0 -8 7 -20
15 -27 17 -14 20 -40 5 -40 -5 0 -10 -6 -10 -14 0 -23 -31 -28 -58 -10 -15 10
-27 13 -29 7 -2 -6 -17 -8 -36 -4 -24 5 -31 12 -29 25 3 15 -1 17 -17 13 -15
-3 -21 0 -21 10 0 11 7 14 24 9 29 -7 88 3 81 15 -3 4 1 11 9 16 8 4 17 19 21
33 5 21 1 28 -25 43 -51 31 -36 46 22 22 11 -4 23 1 35 14 19 23 29 26 38 12z
m2419 -86 c4 -14 11 -25 16 -25 6 0 10 -8 9 -17 0 -11 -3 -13 -6 -5 -2 6 -11
12 -19 12 -8 0 -14 6 -14 14 0 8 -3 21 -6 30 -3 9 -2 16 4 16 5 0 13 -11 16
-25z m-1032 -68 c45 -19 123 -89 154 -139 13 -20 31 -63 40 -96 22 -77 6 -167
-32 -184 -13 -6 -27 -21 -30 -33 -4 -16 -13 -22 -30 -22 -13 0 -21 3 -18 8 7
12 -13 11 -37 -1 -11 -6 -19 -22 -20 -38 0 -15 -3 -21 -6 -14 -6 14 -83 17
-83 2 0 -6 -15 -4 -36 5 -20 8 -45 15 -55 15 -24 0 -35 20 -18 32 10 7 1 8
-27 4 -32 -5 -43 -2 -48 9 -7 19 -35 19 -42 0 -9 -23 -23 -18 -17 6 3 12 1 24
-4 28 -6 4 -5 17 4 36 l14 30 -6 -29 c-6 -26 -5 -27 10 -12 10 10 14 24 10 36
-5 14 -2 20 9 20 9 0 16 5 16 10 0 14 -7 13 -34 -5 -21 -14 -23 -14 -34 10 -7
15 -8 25 -2 25 6 0 10 5 10 11 0 7 -10 9 -25 5 -18 -5 -30 -1 -41 13 -10 11
-22 17 -29 15 -7 -3 -15 2 -19 12 -5 13 -9 14 -21 4 -9 -8 -12 -18 -6 -29 8
-17 -10 -63 -25 -61 -4 1 -11 -6 -14 -16 -4 -11 -11 6 -20 47 -7 35 -15 58
-17 51 -3 -6 -9 -10 -14 -6 -5 3 -9 0 -9 -5 0 -20 -15 -11 -27 15 -23 50 15
99 112 144 33 15 66 35 74 44 25 30 113 69 181 81 70 12 140 3 212 -28z m1168
23 c0 -5 -5 -10 -11 -10 -5 0 -7 5 -4 10 3 6 8 10 11 10 2 0 4 -4 4 -10z m57
-20 c-6 -11 -15 -20 -19 -20 -5 0 -8 -5 -8 -11 0 -16 -31 -38 -53 -39 -11 0
-17 5 -14 13 2 6 14 11 25 9 12 -2 22 2 22 7 0 21 2 26 12 39 6 6 7 12 2 13
-5 0 0 4 11 8 28 12 37 4 22 -19z m-177 -24 c0 -11 -19 -15 -25 -6 -3 5 1 10
9 10 9 0 16 -2 16 -4z m186 -45 c-4 -5 0 -11 6 -14 10 -4 11 -7 1 -18 -10 -9
-13 -10 -13 -1 0 7 -3 11 -7 11 -22 -4 -43 2 -43 12 0 6 9 8 20 4 11 -4 20 -2
20 4 0 6 5 11 11 11 5 0 8 -4 5 -9z m-2696 -26 c0 -18 -5 -25 -20 -25 -35 0
-24 45 13 49 4 1 7 -10 7 -24z m2138 5 c23 -10 45 -26 48 -35 8 -21 -31 -54
-56 -48 -14 4 -20 0 -20 -11 0 -9 12 -18 28 -22 15 -4 36 -13 47 -20 11 -8 29
-14 40 -14 12 0 26 -5 33 -12 9 -9 12 -6 12 16 0 16 4 25 10 21 6 -4 8 -10 5
-15 -3 -4 -1 -10 5 -12 5 -1 19 -30 31 -63 26 -74 23 -151 -9 -217 -25 -51
-59 -94 -68 -85 -3 3 4 15 15 26 18 18 19 24 9 41 -14 22 -29 25 -44 10 -11
-11 -44 -3 -44 10 0 5 -13 11 -29 15 -33 7 -64 31 -74 58 -12 32 -37 20 -37
-18 0 -19 -4 -35 -10 -35 -5 0 -10 7 -10 15 0 9 -9 15 -25 15 -27 0 -32 -9
-13 -28 9 -9 8 -12 -5 -12 -9 0 -17 5 -17 11 0 7 -11 9 -27 6 -44 -8 -173 15
-173 31 0 8 -11 23 -25 34 -15 11 -25 30 -25 44 0 14 -4 22 -10 19 -16 -10
-12 78 5 111 71 140 297 226 433 164z m-2411 -182 c-3 -8 -6 -5 -6 6 -1 11 2
17 5 13 3 -3 4 -12 1 -19z m1190 -169 c21 -8 24 -13 13 -18 -8 -3 -16 -19 -18
-35 -3 -27 3 -46 29 -98 5 -10 5 -20 -1 -23 -6 -4 -4 -12 5 -21 20 -21 19 -43
-2 -51 -10 -4 -21 -11 -25 -17 -4 -5 -23 -10 -42 -10 -20 0 -36 -5 -36 -11 0
-14 -39 -37 -50 -30 -15 9 -12 25 5 25 19 0 19 14 0 30 -12 10 -16 9 -21 -4
-9 -23 -23 -20 -17 4 3 11 0 20 -6 20 -6 0 -11 -7 -11 -15 0 -9 -9 -15 -24
-15 -13 0 -30 -2 -38 -3 -7 -2 -10 -2 -5 0 12 7 8 33 -6 33 -7 0 -20 -9 -30
-20 -21 -25 -37 -26 -38 -2 0 15 -1 15 -8 -2 -6 -15 -9 -17 -16 -6 -6 10 -11
9 -22 -5 -12 -17 -13 -16 -13 11 0 67 29 122 97 182 68 60 83 69 148 82 59 12
100 11 132 -1z m-1193 -94 c-4 -8 -8 -15 -10 -15 -2 0 -4 7 -4 15 0 8 4 15 10
15 5 0 7 -7 4 -15z m122 -60 c-4 -14 -14 -29 -24 -32 -9 -4 -20 -11 -24 -17
-14 -21 -20 4 -9 35 21 59 72 72 57 14z m2490 -374 c52 -15 99 -59 134 -128
46 -87 41 -155 -18 -261 -11 -19 -16 -21 -28 -12 -7 7 -12 16 -9 20 3 5 -7 18
-22 29 -20 17 -28 19 -35 9 -5 -9 -8 -10 -8 -1 0 7 8 16 17 21 14 9 15 14 3
41 -14 35 -20 35 -24 0 -5 -34 -17 -59 -28 -59 -6 0 -5 6 2 15 10 12 10 18 0
30 -6 8 -9 23 -5 35 5 14 2 20 -9 20 -9 0 -16 -8 -17 -17 -1 -12 -4 -9 -8 7
-6 19 -14 25 -33 23 -18 -1 -29 6 -39 24 -12 22 -18 24 -55 19 -40 -5 -41 -5
-37 22 3 15 7 34 10 42 9 22 9 70 1 70 -5 0 -8 7 -8 15 0 9 14 17 40 21 22 4
45 13 51 20 13 16 58 13 125 -5z m-1228 -176 c-2 -2 -20 -8 -40 -13 -32 -9
-38 -8 -38 4 0 9 4 13 8 10 4 -2 14 -1 21 3 11 7 57 3 49 -4z m52 5 c0 -5 19
-10 43 -9 32 0 37 2 22 9 -16 7 -17 9 -3 9 9 1 30 -10 46 -24 17 -14 34 -25
40 -25 8 0 43 -37 81 -85 8 -11 31 -96 31 -116 0 -7 -6 -5 -14 6 -7 10 -11 27
-8 38 3 13 1 18 -5 14 -6 -4 -23 9 -38 29 -15 19 -30 33 -33 30 -8 -8 -46 56
-43 73 1 7 -2 10 -9 6 -7 -4 -9 -17 -5 -34 4 -14 8 -32 8 -38 0 -7 6 -13 14
-13 7 0 13 -4 13 -8 0 -10 -30 -9 -48 2 -8 5 -12 -1 -12 -18 0 -14 5 -26 10
-26 19 0 10 -19 -29 -59 -26 -26 -42 -36 -52 -31 -7 5 -25 6 -39 4 -32 -7 -63
16 -54 39 3 9 10 17 14 17 5 0 3 17 -3 37 -9 28 -9 37 1 41 7 2 9 9 5 15 -11
18 -11 47 1 47 6 0 24 -15 41 -32 16 -18 39 -33 50 -33 16 0 20 -6 18 -27 -1
-18 3 -28 12 -28 10 0 13 10 12 30 -1 16 -5 30 -9 30 -5 0 -8 18 -8 39 0 22
-6 42 -12 45 -7 3 -4 4 8 1 26 -7 56 4 48 16 -3 5 -12 5 -22 0 -11 -5 -29 -3
-49 5 -32 14 -52 34 -34 34 6 0 11 -4 11 -10z m-156 -50 c-6 -6 -10 -2 -11 12
-2 16 1 18 10 9 7 -7 8 -14 1 -21z m-31 3 c-14 -5 -18 -33 -5 -33 14 0 31 -39
38 -89 l6 -50 -44 4 c-25 2 -51 -1 -59 -6 -10 -6 -4 -9 21 -10 19 -1 43 -1 53
0 9 1 17 -3 17 -8 0 -6 -8 -11 -17 -11 -17 -1 -17 -1 0 -14 27 -21 21 -24 -43
-20 -36 2 -73 -2 -93 -11 -37 -15 -49 -12 -40 11 8 22 -15 17 -27 -6 -6 -11
-15 -20 -21 -20 -15 0 -3 109 16 147 21 42 85 95 108 89 10 -2 14 0 11 6 -9
15 8 23 53 25 21 1 32 -1 26 -4z m1205 -14 c-2 -6 -8 -10 -13 -10 -5 0 -11 4
-13 10 -2 6 4 11 13 11 9 0 15 -5 13 -11z m67 -38 c3 -5 1 -12 -5 -16 -5 -3
-10 1 -10 9 0 18 6 21 15 7z m-515 -53 c0 -5 -9 -8 -20 -8 -11 0 -20 -4 -20
-10 0 -13 -46 -24 -62 -14 -9 6 -2 11 22 15 l35 6 -33 2 c-20 0 -31 5 -27 11
7 12 105 9 105 -2z m580 -48 c0 -5 -4 -10 -10 -10 -5 0 -10 5 -10 10 0 6 5 10
10 10 6 0 10 -4 10 -10z m40 0 c0 -5 -5 -10 -11 -10 -5 0 -7 5 -4 10 3 6 8 10
11 10 2 0 4 -4 4 -10z m-482 -43 c2 -10 -3 -17 -13 -17 -9 0 -13 5 -10 10 3 6
-4 10 -17 10 -19 0 -20 2 -8 10 21 14 44 8 48 -13z m-42 -24 c-3 -8 -6 -17 -6
-21 0 -8 -29 31 -30 40 0 3 9 4 21 1 12 -4 18 -11 15 -20z m-456 -26 c0 -12
-6 -17 -17 -15 -11 2 -17 11 -15 21 2 9 -2 17 -8 17 -5 0 -10 4 -10 9 0 5 11
4 25 -2 14 -7 25 -20 25 -30z m400 29 c0 -8 8 -17 18 -19 9 -3 4 -5 -13 -4
-28 2 -30 0 -36 -43 l-6 -45 -1 43 c-2 40 14 82 30 82 5 0 8 -6 8 -14z m-131
-25 c-15 -5 -22 6 -14 19 6 9 10 9 16 -1 5 -8 4 -15 -2 -18z m-61 -1 c12 0 13
-3 5 -11 -9 -9 -16 -8 -27 3 -8 9 -12 19 -8 22 4 4 8 2 10 -3 2 -6 11 -11 20
-11z m107 10 c3 -5 1 -10 -4 -10 -6 0 -11 5 -11 10 0 6 2 10 4 10 3 0 8 -4 11
-10z m175 -10 c-8 -5 -19 -10 -25 -10 -5 0 -3 5 5 10 8 5 20 10 25 10 6 0 3
-5 -5 -10z m-890 -10 c0 -5 -2 -10 -4 -10 -3 0 -8 5 -11 10 -3 6 -1 10 4 10 6
0 11 -4 11 -10z m167 4 c-3 -3 -12 -4 -19 -1 -8 3 -5 6 6 6 11 1 17 -2 13 -5z
m579 -102 c-3 -3 -14 2 -24 11 -10 10 -24 17 -30 17 -7 0 -12 9 -12 20 0 11 7
20 15 20 8 0 15 -9 15 -20 0 -11 5 -20 10 -20 6 0 10 8 10 18 0 36 15 33 18
-3 2 -20 1 -40 -2 -43z m-1176 16 c0 -32 -22 -88 -34 -88 -8 0 -21 -10 -29
-22 l-16 -23 0 30 c-1 34 46 115 66 115 7 0 13 -6 13 -12z m1820 -238 c0 -5
-2 -10 -4 -10 -3 0 -8 5 -11 10 -3 6 -1 10 4 10 6 0 11 -4 11 -10z m-238 -59
c99 -47 158 -143 158 -254 0 -55 -4 -69 -35 -115 -20 -28 -37 -52 -38 -52 -1
0 -3 11 -3 25 -1 14 2 23 6 20 5 -3 11 -1 14 4 4 5 2 12 -4 16 -5 3 -10 17
-10 30 0 18 -4 23 -15 19 -8 -4 -15 -1 -15 5 0 6 5 11 10 11 6 0 10 5 10 11 0
7 -15 9 -42 4 -40 -5 -42 -5 -24 10 17 13 18 15 3 15 -9 0 -17 6 -17 14 0 9
-21 15 -69 20 -62 6 -70 10 -73 29 -2 12 -10 21 -17 19 -7 -2 -21 3 -30 11 -9
8 -24 17 -35 21 -12 4 -17 13 -13 26 3 11 2 20 -3 20 -4 0 -10 -13 -13 -29 -5
-25 -11 -29 -40 -29 -27 0 -35 5 -44 28 -11 30 -2 50 23 50 7 0 14 3 16 8 5
12 91 68 123 80 44 17 124 9 177 -17z m-827 -13 c6 -6 5 -12 -5 -18 -21 -14
-30 -12 -30 5 0 8 -4 15 -10 15 -5 0 -10 5 -10 11 0 11 38 3 55 -13z m-407 1
c-2 -6 3 -14 11 -17 10 -3 12 0 8 12 -4 9 -2 16 3 16 6 0 10 -7 10 -15 0 -8 5
-15 11 -15 5 0 7 5 4 10 -4 6 10 10 34 10 23 0 41 -4 41 -9 0 -4 -12 -6 -26
-3 -27 5 -27 5 -8 -15 18 -18 21 -18 52 -4 17 8 32 20 32 26 0 21 75 17 103
-5 22 -18 27 -18 40 -5 13 13 16 13 21 0 3 -9 11 -14 18 -13 8 2 14 -9 16 -24
3 -25 -12 -40 -20 -20 -1 4 -14 2 -28 -5 l-25 -13 28 0 c29 0 39 -20 10 -20
-17 -1 -17 -1 0 -14 16 -13 16 -14 -5 -20 -14 -3 -27 0 -33 7 -12 16 -40 27
-80 33 -31 4 -75 -27 -75 -53 0 -7 -4 -13 -10 -13 -5 0 -9 6 -7 13 1 7 -11 13
-33 14 -19 0 -52 4 -72 8 -41 8 -46 1 -23 -32 10 -15 12 -24 5 -28 -17 -10
-40 3 -40 22 0 15 -2 16 -10 3 -7 -11 -10 -2 -10 32 0 26 5 50 10 53 6 4 8 15
5 25 -3 11 0 20 10 24 9 3 13 11 9 17 -3 6 0 15 7 20 18 11 19 11 17 -2z m442
-44 c0 -8 -7 -15 -15 -15 -16 0 -20 12 -8 23 11 12 23 8 23 -8z m-1370 -135
c0 -15 9 -36 20 -48 11 -12 20 -24 20 -28 0 -21 44 -64 66 -64 17 0 24 -5 24
-20 0 -16 -7 -20 -30 -20 -39 0 -80 27 -80 51 0 11 -4 19 -9 19 -5 0 -11 9
-14 20 -3 11 -13 23 -23 27 -22 8 -73 64 -74 80 0 6 10 19 22 27 19 14 24 14
50 -2 19 -11 28 -24 28 -42z m1681 35 c36 -17 89 -88 89 -119 0 -10 4 -25 9
-34 5 -9 12 -37 15 -62 6 -43 6 -44 -8 -20 l-15 25 -1 -23 c0 -13 -4 -21 -9
-18 -5 3 -11 -1 -15 -9 -3 -9 -18 -15 -40 -15 -26 0 -35 5 -40 23 l-7 22 -16
-22 c-8 -13 -22 -23 -29 -23 -17 0 -19 17 -2 22 6 2 8 10 4 17 -9 14 -37 -4
-33 -21 2 -10 -53 -31 -60 -24 -2 2 -6 16 -9 32 -6 31 -20 51 -30 42 -3 -4 -1
-15 5 -26 8 -15 7 -23 -5 -33 -13 -10 -17 -10 -25 2 -5 8 -9 22 -9 31 0 20
-17 33 -22 16 -2 -6 -9 -8 -16 -4 -14 9 6 46 25 46 15 0 17 36 3 45 -5 3 -10
0 -10 -8 0 -7 -11 -20 -25 -27 -22 -12 -27 -11 -41 6 -15 19 -16 19 -9 -1 4
-11 9 -29 11 -40 4 -16 3 -16 -5 3 -13 27 -31 29 -31 3 0 -11 -4 -23 -10 -26
-20 -12 -9 31 19 80 37 63 86 117 131 145 29 18 46 20 105 17 39 -3 86 -12
106 -22z m-721 -5 c0 -5 -7 -10 -16 -10 -8 0 -12 5 -9 10 3 6 10 10 16 10 5 0
9 -4 9 -10z m40 -32 c0 -16 -3 -19 -11 -11 -6 6 -8 16 -5 22 11 17 16 13 16
-11z m240 3 c0 -11 -4 -23 -10 -26 -6 -4 -10 5 -10 19 0 14 5 26 10 26 6 0 10
-9 10 -19z m769 -51 c0 -9 -4 -8 -9 5 -5 11 -9 27 -9 35 0 9 4 8 9 -5 5 -11 9
-27 9 -35z m-814 -24 c-25 -38 -38 -32 -17 8 9 19 21 31 25 26 5 -4 1 -20 -8
-34z m-62 27 c3 -5 1 -17 -4 -28 -4 -11 -8 -15 -8 -8 -1 6 -4 18 -7 27 -6 16
11 23 19 9z m847 -8 c10 -12 10 -15 -4 -15 -9 0 -16 -7 -16 -16 0 -11 -6 -15
-20 -11 -25 6 -26 -1 -2 -19 15 -12 15 -13 1 -14 -27 0 -30 29 -7 61 25 33 31
35 48 14z m477 -24 c49 -35 85 -106 91 -175 4 -59 -18 -130 -41 -134 -11 -2
-15 1 -11 11 3 8 1 18 -5 22 -6 3 -11 0 -11 -7 -1 -7 -10 4 -21 25 -11 22 -18
46 -14 54 6 18 -21 53 -42 53 -9 0 -13 14 -13 43 0 23 -6 53 -13 67 -16 30
-12 51 9 43 8 -3 14 1 14 11 0 23 11 20 57 -13z m-457 -11 c0 -5 -5 -10 -11
-10 -5 0 -7 5 -4 10 3 6 8 10 11 10 2 0 4 -4 4 -10z m-15 -30 c3 -5 -1 -10
-10 -10 -9 0 -13 5 -10 10 3 6 8 10 10 10 2 0 7 -4 10 -10z m-2255 -140 c0
-22 -4 -40 -10 -40 -5 0 -10 18 -10 40 0 22 5 40 10 40 6 0 10 -18 10 -40z
m1670 -7 c0 -25 -1 -26 -16 -11 -9 9 -13 21 -10 27 13 20 26 11 26 -16z
m-1640 -43 c0 -5 -2 -10 -4 -10 -3 0 -8 5 -11 10 -3 6 -1 10 4 10 6 0 11 -4
11 -10z m2179 -38 c31 -15 64 -26 73 -24 13 2 16 -1 11 -14 -5 -14 -2 -16 23
-10 72 16 88 14 115 -16 29 -32 49 -89 49 -141 0 -40 -20 -99 -27 -79 -3 6
-16 12 -29 12 -16 0 -24 6 -24 16 0 36 -60 56 -102 33 -27 -14 -36 -2 -12 16
18 13 17 14 -15 15 -24 0 -32 -4 -28 -14 3 -8 -2 -16 -14 -19 -20 -5 -17 -34
5 -49 6 -4 1 -8 -12 -8 -13 0 -37 13 -55 30 -18 16 -37 30 -42 30 -17 0 -45
38 -45 60 0 20 -1 20 -31 5 -32 -17 -59 -14 -59 6 0 6 9 9 20 6 24 -6 26 1 4
17 -14 10 -12 14 11 26 14 7 24 19 21 26 -3 7 2 18 9 24 8 7 14 15 13 18 -2
12 15 47 26 54 21 15 59 8 115 -20z m-1407 -7 c15 -32 7 -39 -37 -31 -33 7
-47 30 -28 49 16 17 54 6 65 -18z m-679 -102 c-17 -6 -16 -33 1 -33 7 0 19 -7
26 -15 17 -20 40 -19 40 3 0 14 4 13 19 -7 19 -24 19 -25 -4 -43 -13 -10 -29
-18 -37 -18 -17 1 -58 35 -58 49 0 6 -11 16 -23 22 -31 14 -31 39 0 39 15 0
23 6 23 17 0 14 2 15 13 4 10 -11 10 -14 0 -18z m-78 7 c3 -5 1 -10 -4 -10 -6
0 -11 5 -11 10 0 6 2 10 4 10 3 0 8 -4 11 -10z m583 -97 c41 -44 19 -108 -28
-83 -23 12 -50 66 -50 100 0 17 4 19 28 14 15 -4 37 -18 50 -31z m1580 -113
c13 0 13 -3 4 -12 -10 -10 -15 -10 -22 2 -5 8 -9 20 -9 25 0 6 3 4 6 -2 2 -7
12 -13 21 -13z m-2198 -30 c10 -18 8 -20 -20 -20 -29 0 -29 1 -12 19 22 24 19
24 32 1z m1770 -230 c0 -11 -4 -20 -10 -20 -5 0 -10 9 -10 20 0 11 5 20 10 20
6 0 10 -9 10 -20z m57 -26 c-3 -3 -12 -4 -19 -1 -8 3 -5 6 6 6 11 1 17 -2 13
-5z m-102 -23 c3 -6 -3 -15 -14 -21 -24 -12 -42 7 -20 21 18 11 26 11 34 0z
m735 -63 c0 -20 -15 -38 -31 -38 -11 0 -22 -7 -25 -15 -9 -23 -71 -20 -84 5
-15 29 4 60 38 61 15 0 36 4 47 8 19 8 55 -6 55 -21z m-1004 13 c-3 -4 6 -6
19 -3 20 3 25 0 25 -17 0 -26 -18 -27 -59 -3 -38 21 -39 32 -5 32 14 0 23 -4
20 -9z m6 -82 c2 -6 31 -14 66 -18 78 -9 91 -21 23 -21 -54 0 -121 22 -121 39
0 14 27 14 32 0z m1028 -9 c-19 -13 -30 -13 -30 0 0 6 10 10 23 10 18 0 19 -2
7 -10z m-50 -64 c0 -2 -7 -7 -16 -10 -8 -3 -12 -2 -9 4 6 10 25 14 25 6z
m-2436 -261 c4 -11 -2 -15 -24 -15 -22 0 -28 4 -24 15 4 8 14 15 24 15 10 0
20 -7 24 -15z m336 -421 c0 -8 -5 -12 -10 -9 -6 4 -8 11 -5 16 9 14 15 11 15
-7z m324 -59 c-4 -8 -15 -15 -25 -15 -12 0 -19 -7 -19 -19 0 -11 -5 -23 -11
-26 -5 -4 -14 -18 -20 -32 -6 -18 -15 -24 -32 -21 -29 4 -29 22 1 26 24 4 29
21 10 40 -9 9 -8 17 2 37 11 21 21 25 56 25 34 0 42 -3 38 -15z m-897 -476
c-14 -8 -22 -8 -30 0 -8 8 -3 11 19 11 25 -1 27 -2 11 -11z"/>
<path d="M711 5013 c0 -6 -4 -20 -7 -30 -5 -14 -4 -15 5 -7 7 7 11 20 8 30 -3
11 -5 14 -6 7z"/>
<path d="M670 4925 c0 -9 5 -15 11 -13 6 2 11 8 11 13 0 5 -5 11 -11 13 -6 2
-11 -4 -11 -13z"/>
<path d="M1908 4633 c7 -3 16 -2 19 1 4 3 -2 6 -13 5 -11 0 -14 -3 -6 -6z"/>
<path d="M2160 4522 c0 -10 21 -32 31 -32 4 0 9 9 12 20 4 16 0 20 -19 20 -13
0 -24 -4 -24 -8z"/>
<path d="M2620 4765 c-25 -14 -24 -14 18 -15 31 0 42 4 40 13 -7 18 -29 19
-58 2z"/>
<path d="M2485 4620 c3 -5 10 -10 16 -10 5 0 9 5 9 10 0 6 -7 10 -16 10 -8 0
-12 -4 -9 -10z"/>
<path d="M2860 4610 c0 -5 7 -10 16 -10 8 0 12 5 9 10 -3 6 -10 10 -16 10 -5
0 -9 -4 -9 -10z"/>
<path d="M2825 4520 c-4 -6 5 -10 20 -10 15 0 24 4 20 10 -3 6 -12 10 -20 10
-8 0 -17 -4 -20 -10z"/>
<path d="M2510 4510 c0 -5 5 -10 10 -10 6 0 10 5 10 10 0 6 -4 10 -10 10 -5 0
-10 -4 -10 -10z"/>
<path d="M2480 4490 c0 -5 5 -10 10 -10 6 0 10 5 10 10 0 6 -4 10 -10 10 -5 0
-10 -4 -10 -10z"/>
<path d="M2540 4490 c0 -5 5 -10 10 -10 6 0 10 5 10 10 0 6 -4 10 -10 10 -5 0
-10 -4 -10 -10z"/>
<path d="M2820 4480 c0 -13 30 -13 50 0 11 7 7 10 -17 10 -18 0 -33 -4 -33
-10z"/>
<path d="M2900 4468 c0 -9 5 -20 10 -23 13 -8 13 5 0 25 -8 13 -10 13 -10 -2z"/>
<path d="M2910 3920 c-13 -8 -12 -10 3 -10 9 0 17 5 17 10 0 12 -1 12 -20 0z"/>
<path d="M2840 3900 c0 -11 4 -20 10 -20 5 0 14 9 20 20 9 17 8 20 -10 20 -13
0 -20 -7 -20 -20z"/>
<path d="M2010 3711 c0 -5 7 -14 15 -21 16 -14 18 -10 9 14 -6 17 -24 22 -24
7z"/>
<path d="M1827 3622 c-4 -20 18 -46 32 -38 12 8 2 43 -14 50 -7 2 -15 -3 -18
-12z"/>
<path d="M1485 3650 c3 -5 8 -10 11 -10 2 0 4 5 4 10 0 6 -5 10 -11 10 -5 0
-7 -4 -4 -10z"/>
<path d="M1479 3611 c-13 -11 -21 -23 -17 -27 12 -11 58 13 58 31 0 20 -13 19
-41 -4z"/>
<path d="M1585 3550 c27 -12 43 -12 25 0 -8 5 -22 9 -30 9 -10 0 -8 -3 5 -9z"/>
<path d="M1728 3069 c-23 -25 -23 -39 2 -39 12 0 17 5 14 14 -3 8 -1 17 5 21
12 7 15 25 4 24 -5 0 -16 -9 -25 -20z"/>
<path d="M1795 3080 c3 -5 11 -10 16 -10 6 0 7 5 4 10 -3 6 -11 10 -16 10 -6
0 -7 -4 -4 -10z"/>
<path d="M1608 3073 c6 -2 18 -2 25 0 6 3 1 5 -13 5 -14 0 -19 -2 -12 -5z"/>
<path d="M1850 3071 c0 -6 5 -13 10 -16 6 -3 10 1 10 9 0 9 -4 16 -10 16 -5 0
-10 -4 -10 -9z"/>
<path d="M1618 3043 c7 -3 16 -2 19 1 4 3 -2 6 -13 5 -11 0 -14 -3 -6 -6z"/>
<path d="M2078 2935 c-9 -9 16 -55 27 -52 6 2 11 16 13 30 3 21 -1 27 -16 27
-10 0 -21 -2 -24 -5z"/>
<path d="M2046 2894 c-8 -22 -8 -24 6 -24 6 0 8 3 5 7 -4 3 -2 12 4 20 7 8 8
13 1 13 -5 0 -13 -7 -16 -16z"/>
<path d="M2345 2900 c-9 -15 4 -30 23 -29 16 1 16 2 0 6 -10 2 -15 10 -11 19
6 16 -3 19 -12 4z"/>
<path d="M2255 2890 c-3 -5 1 -10 10 -10 9 0 13 5 10 10 -3 6 -8 10 -10 10 -2
0 -7 -4 -10 -10z"/>
<path d="M2240 2860 c0 -5 5 -10 10 -10 6 0 10 5 10 10 0 6 -4 10 -10 10 -5 0
-10 -4 -10 -10z"/>
<path d="M2173 2763 c-7 -2 -13 -11 -13 -20 0 -20 34 -12 38 10 3 17 -3 20
-25 10z"/>
<path d="M3040 2735 c0 -8 4 -15 10 -15 5 0 7 7 4 15 -4 8 -8 15 -10 15 -2 0
-4 -7 -4 -15z"/>
<path d="M3156 2709 c-12 -36 -16 -88 -7 -93 12 -8 24 22 24 62 0 36 -10 53
-17 31z"/>
<path d="M2621 2523 c-7 -8 -10 -17 -6 -21 3 -3 10 0 14 7 7 11 9 11 14 0 4
-11 7 -12 18 -1 11 10 10 12 -3 12 -9 0 -18 4 -20 9 -1 5 -9 2 -17 -6z"/>
<path d="M2462 2488 c-16 -16 -15 -28 3 -28 8 0 15 9 15 20 0 23 -2 24 -18 8z"/>
<path d="M2803 2372 c-10 -6 -10 -12 2 -28 14 -18 14 -18 15 9 0 30 0 30 -17
19z"/>
<path d="M440 5520 c0 -5 5 -10 11 -10 5 0 7 5 4 10 -3 6 -8 10 -11 10 -2 0
-4 -4 -4 -10z"/>
<path d="M3905 5520 c3 -5 8 -10 11 -10 2 0 4 5 4 10 0 6 -5 10 -11 10 -5 0
-7 -4 -4 -10z"/>
<path d="M4480 5508 c0 -15 -5 -18 -20 -13 -14 5 -20 2 -20 -9 0 -18 18 -20
53 -7 35 14 41 38 11 44 -19 3 -24 0 -24 -15z"/>
<path d="M235 5500 c4 -14 12 -26 16 -28 5 -2 9 -10 9 -17 0 -7 7 -16 16 -19
21 -8 31 -7 18 2 -6 4 -23 25 -38 47 -21 30 -26 34 -21 15z"/>
<path d="M2677 5509 c-9 -6 -17 -14 -17 -19 0 -16 30 -11 37 5 8 21 1 25 -20
14z"/>
<path d="M4550 5511 c0 -5 5 -11 11 -13 6 -2 17 -19 25 -37 13 -31 12 -33 -6
-38 -11 -3 -20 -11 -20 -17 0 -15 114 -40 118 -26 6 16 20 12 31 -9 9 -16 7
-17 -15 -13 -16 3 -30 -2 -42 -15 -9 -11 -25 -22 -34 -26 -19 -7 -25 -42 -9
-51 4 -3 22 -1 39 3 35 10 47 4 30 -16 -8 -10 -8 -17 0 -25 7 -7 12 -18 12
-26 0 -25 34 -58 55 -54 16 3 17 1 8 -9 -9 -9 -9 -18 3 -41 15 -29 15 -29 -6
-18 -11 6 -26 23 -31 38 -13 34 -49 68 -58 55 -3 -6 -16 -13 -28 -17 -13 -4
-23 -11 -23 -15 0 -13 74 -66 88 -63 6 2 12 -2 12 -7 0 -6 12 -18 28 -26 23
-14 24 -15 5 -12 -20 5 -22 3 -11 -16 6 -12 19 -33 29 -47 25 -37 33 -80 14
-80 -16 0 -18 -11 -9 -59 5 -21 12 -31 25 -31 24 0 25 28 2 45 -19 14 -8 39
14 30 13 -4 14 -3 3 9 -6 9 -10 21 -8 28 3 8 19 -2 43 -25 24 -23 42 -34 48
-28 13 13 -66 87 -88 82 -13 -2 -16 1 -11 14 4 10 -1 29 -10 42 -8 14 -14 27
-11 29 2 2 12 -12 23 -31 33 -62 44 -39 21 45 -7 25 -18 56 -26 69 -11 20 -11
26 2 38 12 12 18 10 43 -16 16 -17 35 -31 41 -31 7 0 13 -4 13 -9 0 -4 -11 -6
-25 -3 -28 5 -33 -9 -9 -32 19 -20 33 -20 40 -1 4 8 12 15 20 15 19 0 18 24
-1 40 -10 8 -13 21 -9 33 5 16 3 19 -11 13 -14 -5 -16 -2 -12 16 10 39 -12 52
-56 33 -12 -5 -24 -2 -35 9 -15 15 -14 16 8 17 14 1 33 0 43 -1 13 -1 18 4 15
17 -2 10 -11 18 -20 18 -9 0 -20 4 -24 8 -4 4 0 7 9 7 31 0 18 28 -18 40 -24
8 -35 18 -35 30 0 11 -9 24 -21 30 -25 14 -41 52 -25 63 6 4 0 5 -14 2 -19 -5
-33 1 -53 19 -46 43 -107 69 -107 47z m130 -101 c0 -5 -2 -10 -4 -10 -3 0 -8
5 -11 10 -3 6 -1 10 4 10 6 0 11 -4 11 -10z m50 -96 c0 -7 10 -14 22 -16 30
-4 34 -25 6 -33 -13 -4 -31 -9 -40 -11 -13 -4 -18 0 -18 15 0 11 -9 25 -20 31
-31 17 -24 31 15 28 20 -1 35 -7 35 -14z"/>
<path d="M463 5477 c2 -6 13 -11 24 -9 50 7 50 -69 -1 -82 -28 -7 -45 -44 -26
-56 12 -7 17 -36 21 -107 1 -13 4 -23 8 -23 11 0 30 40 33 70 2 19 11 26 38
31 29 6 40 3 60 -15 34 -31 92 -56 129 -56 40 0 61 36 43 75 -12 25 -74 59
-80 43 -2 -4 -12 -8 -23 -8 -10 0 -19 -3 -19 -7 0 -7 -89 -10 -127 -5 -7 1
-13 16 -13 33 0 22 5 32 20 36 26 7 27 54 3 75 -22 19 -96 23 -90 5z"/>
<path d="M775 5451 c-3 -6 -18 -11 -32 -11 l-26 0 25 -19 c34 -27 98 -39 98
-18 0 9 -9 18 -20 22 -11 3 -19 11 -17 17 3 14 -20 22 -28 9z"/>
<path d="M3787 5454 c-7 -7 14 -44 25 -44 5 0 8 7 8 15 0 9 6 12 18 8 14 -5
13 -3 -3 10 -21 17 -38 21 -48 11z"/>
<path d="M4472 5444 c-14 -16 -5 -18 17 -5 7 5 9 11 5 14 -5 3 -15 -1 -22 -9z"/>
<path d="M995 5430 c3 -5 8 -10 11 -10 2 0 4 5 4 10 0 6 -5 10 -11 10 -5 0 -7
-4 -4 -10z"/>
<path d="M4380 5436 c0 -9 30 -14 35 -6 4 6 -3 10 -14 10 -12 0 -21 -2 -21 -4z"/>
<path d="M4888 5433 c7 -3 16 -2 19 1 4 3 -2 6 -13 5 -11 0 -14 -3 -6 -6z"/>
<path d="M4451 5404 c9 -9 25 -14 35 -12 14 3 10 7 -16 16 -32 12 -34 11 -19
-4z"/>
<path d="M100 5395 c0 -6 16 -35 35 -65 19 -30 38 -62 41 -72 3 -10 9 -18 14
-18 15 0 23 21 11 33 -6 6 -11 17 -11 24 0 7 -20 34 -45 60 -24 26 -45 43 -45
38z"/>
<path d="M4125 5350 c3 -5 8 -10 11 -10 2 0 4 5 4 10 0 6 -5 10 -11 10 -5 0
-7 -4 -4 -10z"/>
<path d="M2767 5317 c15 -19 30 -33 32 -31 6 5 -40 64 -51 64 -5 0 3 -15 19
-33z"/>
<path d="M4350 5340 c0 -5 5 -10 11 -10 5 0 7 5 4 10 -3 6 -8 10 -11 10 -2 0
-4 -4 -4 -10z"/>
<path d="M3977 5327 c-3 -7 -1 -20 3 -28 7 -11 10 -10 16 4 4 10 2 23 -3 28
-7 7 -12 6 -16 -4z"/>
<path d="M4530 5324 c0 -8 5 -12 10 -9 6 4 8 11 5 16 -9 14 -15 11 -15 -7z"/>
<path d="M4495 5290 c3 -5 8 -10 11 -10 2 0 4 5 4 10 0 6 -5 10 -11 10 -5 0
-7 -4 -4 -10z"/>
<path d="M4550 5272 c0 -4 7 -18 16 -30 10 -14 14 -32 10 -48 -5 -17 -2 -24 9
-24 8 0 15 7 15 15 0 17 16 20 25 5 9 -15 35 -12 35 5 0 18 -40 46 -69 48 -13
1 -21 8 -21 19 0 10 -4 18 -10 18 -5 0 -10 -3 -10 -8z"/>
<path d="M2580 5215 c0 -8 4 -15 10 -15 5 0 7 7 4 15 -4 8 -8 15 -10 15 -2 0
-4 -7 -4 -15z"/>
<path d="M4079 5226 c-2 -2 -24 -6 -49 -9 -61 -7 -75 -14 -89 -43 -12 -27 -15
-112 -5 -138 3 -9 14 -16 24 -16 10 0 37 -16 60 -35 23 -19 57 -37 78 -40 71
-12 82 -15 82 -30 0 -21 -54 -55 -89 -55 -30 0 -41 -13 -21 -25 12 -8 2 -191
-15 -275 -15 -71 -10 -120 11 -120 8 0 14 -4 14 -9 0 -5 -25 -15 -56 -21 -32
-7 -76 -23 -100 -36 -24 -13 -50 -24 -59 -24 -14 0 -14 3 2 25 10 13 31 29 46
36 63 27 63 139 -1 212 -8 9 -23 17 -34 17 -11 0 -18 7 -18 19 0 10 -7 36 -16
57 -9 20 -14 50 -12 66 3 15 4 28 3 28 -1 0 -15 -11 -31 -25 -16 -14 -36 -25
-45 -25 -21 0 -38 -21 -48 -57 -11 -42 -45 -43 -67 -1 -9 18 -22 36 -28 40
-15 10 -76 -2 -104 -20 -58 -38 -100 -194 -73 -275 18 -54 73 -119 122 -146
24 -13 70 -25 101 -28 78 -8 84 -18 63 -97 -22 -82 -15 -137 28 -204 18 -28
52 -65 75 -82 36 -26 43 -35 37 -53 -4 -12 -9 -52 -12 -89 -6 -71 7 -124 39
-170 39 -56 34 -65 -40 -70 -156 -11 -241 -103 -242 -259 0 -66 3 -81 30 -122
37 -59 96 -102 161 -117 28 -7 53 -19 56 -27 4 -9 -13 -32 -44 -61 -69 -65
-96 -131 -87 -217 l7 -64 -57 -52 c-66 -60 -91 -103 -101 -175 -9 -71 8 -124
60 -189 43 -52 56 -85 35 -85 -19 0 -126 -119 -136 -152 -14 -45 5 -144 35
-187 31 -44 95 -89 137 -97 48 -9 59 -28 60 -103 0 -65 25 -140 58 -174 44
-46 56 -72 56 -121 0 -136 126 -233 271 -210 22 4 42 11 45 15 10 16 64 9 84
-11 31 -31 25 -43 -18 -36 -48 7 -103 -27 -131 -82 -10 -20 -29 -46 -41 -57
-39 -34 -51 -77 -40 -136 10 -51 21 -73 49 -95 16 -12 6 -54 -12 -54 -24 0
-88 -63 -117 -114 -34 -59 -38 -111 -14 -183 25 -75 73 -125 163 -172 66 -34
89 -41 136 -41 93 0 167 50 215 144 21 41 20 161 -2 207 -23 47 -91 106 -139
121 -54 16 -69 35 -35 44 30 7 35 38 11 64 -13 15 -14 22 -3 45 12 26 13 27
18 7 4 -19 8 -20 28 -9 35 18 64 108 56 169 -6 40 -4 48 10 48 19 0 45 -28 89
-96 28 -42 37 -49 65 -49 41 0 52 -17 52 -83 0 -29 5 -62 12 -75 6 -12 14 -29
18 -37 4 -8 24 -28 44 -45 32 -26 46 -30 94 -30 100 1 169 56 176 140 4 37 0
50 -21 75 -13 16 -21 30 -17 30 5 0 -1 7 -13 15 -24 17 -46 74 -38 97 4 9 -4
26 -17 41 -74 80 -78 87 -78 129 0 71 34 158 61 158 28 0 77 -47 89 -86 7 -20
18 -47 25 -61 l14 -26 11 44 c7 24 22 64 35 89 13 25 26 72 30 105 5 37 16 71
30 90 34 46 58 97 48 104 -5 3 -17 26 -28 51 -11 25 -22 47 -26 50 -3 3 -10
23 -15 44 -15 62 -29 52 -31 -22 -3 -71 -27 -142 -50 -142 -7 0 -13 -9 -13
-20 0 -40 -19 -19 -25 28 -4 26 -11 61 -15 77 -5 17 -12 54 -16 82 -8 63 -22
78 -70 70 l-36 -6 4 38 c3 40 -3 51 -51 84 l-26 17 45 -3 c25 -1 50 -5 55 -8
6 -4 27 -12 47 -18 20 -7 42 -19 48 -27 8 -9 32 -14 70 -14 36 0 76 -8 105
-20 26 -11 51 -20 55 -20 9 0 8 59 -1 89 -12 43 -76 150 -106 179 -41 39 -39
65 6 122 32 41 112 72 179 71 84 -2 165 54 202 141 19 44 22 64 17 120 -9 102
-34 130 -83 93 -30 -23 -51 -18 -78 18 -32 41 -32 55 -3 135 l22 63 75 34 c86
39 149 100 168 162 15 51 15 73 0 73 -6 0 -4 7 5 18 21 23 21 60 1 112 -15 38
-18 40 -60 40 -50 0 -102 19 -123 44 -13 15 -12 23 2 64 10 26 17 62 17 80 0
31 42 126 61 138 5 3 9 18 9 35 0 16 5 29 10 29 6 0 10 -9 10 -21 0 -13 5 -19
13 -15 6 3 19 8 27 12 18 6 60 76 60 101 0 10 12 36 25 58 14 22 25 54 25 70
0 28 -3 30 -42 33 -23 1 -44 4 -46 6 -2 2 0 19 5 38 5 19 5 60 0 97 -7 49 -13
65 -28 68 -10 3 -19 9 -19 14 0 13 -107 89 -125 89 -9 0 -15 9 -15 24 0 23 10
30 73 50 24 8 60 -8 90 -38 51 -51 60 -28 25 66 l-21 60 21 44 c23 46 29 118
12 129 -5 3 -10 14 -10 24 0 10 -7 24 -15 31 -8 7 -15 28 -15 46 0 24 -4 32
-14 28 -7 -3 -20 2 -29 10 -9 9 -23 16 -33 16 -10 0 -25 6 -33 14 -36 31 -165
49 -226 31 -5 -1 -14 -3 -20 -5 -30 -6 -45 -23 -45 -49 0 -16 -7 -34 -15 -41
-12 -10 -16 -8 -24 13 -6 14 -16 29 -24 34 -8 4 -19 18 -26 31 -6 12 -17 22
-23 22 -7 0 -22 10 -34 21 -45 42 -254 91 -254 60 0 -6 -21 -13 -47 -17 -36
-5 -55 -14 -75 -38 -22 -24 -31 -29 -44 -21 -9 6 -16 14 -15 18 0 4 1 18 1 32
0 14 6 25 13 25 12 0 36 23 75 72 8 10 15 29 17 44 1 15 10 33 19 39 22 16 20
31 -6 49 -15 10 -25 12 -33 6 -9 -7 -16 -5 -25 5 -16 19 -30 19 -30 0 0 -8 5
-15 11 -15 5 0 7 -4 4 -10 -4 -6 1 -7 12 -3 15 6 16 4 6 -8 -9 -11 -9 -19 -2
-26 8 -8 3 -15 -18 -26 -28 -15 -53 -53 -53 -82 0 -19 -14 -19 -50 0 -19 10
-40 13 -56 9 -25 -6 -27 -5 -21 16 4 17 3 20 -6 11 -18 -18 -40 -13 -34 8 7
30 -19 59 -63 71 -22 6 -40 16 -40 23 0 7 20 37 45 67 48 58 52 69 33 88 -7 7
-8 12 -2 12 5 1 -3 6 -18 13 -15 7 -46 31 -70 53 -41 38 -48 41 -104 43 -33 0
-63 -1 -65 -3z m466 -677 c9 -27 -8 -45 -24 -26 -12 15 -5 47 9 47 5 0 12 -9
15 -21z m-12 -72 c18 -8 38 -21 45 -30 12 -14 9 -21 -21 -51 -20 -19 -42 -48
-49 -63 -7 -15 -19 -29 -26 -29 -6 -1 -16 -2 -21 -3 -5 0 -11 -10 -14 -21 -3
-13 -14 -20 -29 -20 -13 0 -41 -9 -62 -20 -27 -13 -44 -16 -56 -10 -9 5 -26 6
-38 3 -21 -5 -21 -5 -5 37 10 25 38 61 72 91 30 27 52 49 47 49 -15 0 -52 -24
-86 -57 -38 -36 -60 -42 -60 -17 0 30 21 54 71 82 28 15 69 37 92 50 47 25 93
28 140 9z m945 -796 c3 -50 2 -53 -14 -40 -9 8 -23 29 -31 48 -12 28 -12 35
-1 42 30 20 43 5 46 -50z m-268 -1146 c17 -21 8 -50 -18 -53 -30 -5 -52 14
-52 44 0 20 5 24 29 24 16 0 34 -7 41 -15z"/>
<path d="M2260 5210 c0 -5 5 -10 11 -10 5 0 7 5 4 10 -3 6 -8 10 -11 10 -2 0
-4 -4 -4 -10z"/>
<path d="M5024 5183 c-12 -2 -31 -14 -42 -26 -18 -19 -20 -28 -12 -62 13 -55
12 -162 -1 -187 -9 -17 -8 -23 6 -31 10 -5 41 -31 71 -58 49 -44 56 -47 91
-42 21 3 71 22 111 43 80 41 120 45 202 16 47 -16 71 -13 27 3 -14 5 -28 15
-32 20 -3 6 -17 11 -31 11 -14 0 -40 7 -59 14 -31 13 -35 19 -35 51 0 50 -20
84 -74 124 -25 19 -47 40 -50 47 -3 8 -15 14 -26 14 -11 0 -20 5 -20 10 0 6
-7 10 -15 10 -8 0 -15 4 -15 8 0 9 -54 43 -67 41 -4 -1 -18 -4 -29 -6z"/>
<path d="M3860 5160 c-54 -31 -208 -68 -292 -69 -53 -1 -53 -1 -61 -91 -4 -49
-58 -173 -65 -151 -2 7 1 18 7 24 6 6 11 15 11 21 0 5 -7 1 -15 -10 -16 -22
-18 -34 -7 -52 7 -10 21 -7 66 13 44 19 60 33 71 58 12 30 69 87 86 87 4 0 16
14 26 30 14 25 24 30 55 30 38 0 138 41 158 65 15 18 -19 57 -40 45z"/>
<path d="M4515 5150 c3 -5 8 -10 11 -10 2 0 4 5 4 10 0 6 -5 10 -11 10 -5 0
-7 -4 -4 -10z"/>
<path d="M2723 5131 c0 -11 6 -17 14 -14 18 7 17 33 -1 33 -8 0 -14 -8 -13
-19z"/>
<path d="M3120 5080 c0 -5 7 -10 15 -10 8 0 15 5 15 10 0 6 -7 10 -15 10 -8 0
-15 -4 -15 -10z"/>
<path d="M446 5073 c-12 -12 -6 -33 9 -33 8 0 15 6 15 14 0 17 -14 28 -24 19z"/>
<path d="M4387 5064 c6 -17 36 -19 31 -2 -2 6 -11 12 -20 14 -11 1 -15 -3 -11
-12z"/>
<path d="M4630 5075 c0 -3 9 -21 19 -41 22 -41 56 -69 66 -55 11 19 -23 81
-50 91 -30 11 -35 12 -35 5z"/>
<path d="M4590 5040 c0 -5 5 -10 11 -10 5 0 7 5 4 10 -3 6 -8 10 -11 10 -2 0
-4 -4 -4 -10z"/>
<path d="M4495 5010 c-3 -5 -3 -10 2 -10 4 0 0 -5 -10 -11 -16 -9 -16 -12 -2
-26 11 -11 26 -13 50 -9 31 6 34 9 25 26 -6 11 -7 20 -3 21 11 1 -29 17 -44
18 -6 1 -15 -3 -18 -9z"/>
<path d="M426 4975 c4 -8 12 -15 20 -15 8 0 14 7 14 15 0 8 -9 15 -20 15 -13
0 -18 -5 -14 -15z"/>
<path d="M5510 4815 c0 -4 17 -23 38 -43 65 -63 89 -115 91 -207 2 -44 5 -82
7 -84 7 -7 31 20 48 53 17 33 11 56 -14 56 -24 0 -31 22 -23 75 4 35 2 45 -8
45 -8 1 -32 19 -54 40 -22 22 -43 40 -47 40 -3 0 -14 7 -22 16 -9 8 -16 13
-16 9z"/>
<path d="M160 4718 c22 -38 50 -51 50 -23 0 8 7 15 15 15 8 0 15 4 15 10 0 12
-45 24 -64 17 -7 -3 -19 0 -26 6 -6 7 -2 -5 10 -25z"/>
<path d="M3205 4560 c3 -5 13 -10 21 -10 8 0 12 5 9 10 -3 6 -13 10 -21 10 -8
0 -12 -4 -9 -10z"/>
<path d="M5833 4533 c-20 -7 -16 -14 31 -66 35 -39 48 -48 66 -42 31 10 23 49
-11 53 -15 2 -32 13 -39 27 -14 26 -28 34 -47 28z"/>
<path d="M3230 4522 c0 -12 49 -37 56 -29 11 10 -17 37 -37 37 -11 0 -19 -4
-19 -8z"/>
<path d="M124 4229 c-3 -6 -3 -13 0 -16 3 -3 1 -12 -6 -20 -16 -19 -1 -30 22
-15 16 9 20 9 20 0 0 -9 3 -9 11 -1 8 8 7 17 -2 32 -16 25 -36 34 -45 20z"/>
<path d="M200 4219 c0 -14 -4 -29 -9 -34 -11 -12 3 -123 17 -137 15 -15 32 0
32 27 0 25 -29 157 -36 164 -2 2 -4 -7 -4 -20z"/>
<path d="M6038 4163 c7 -3 16 -2 19 1 4 3 -2 6 -13 5 -11 0 -14 -3 -6 -6z"/>
<path d="M88 4146 c-15 -8 -40 -17 -57 -21 l-31 -7 1 -321 0 -322 24 49 c13
26 24 51 23 55 -1 3 2 13 5 21 3 8 7 24 9 34 4 24 28 34 28 12 0 -9 5 -16 10
-16 6 0 10 7 10 15 0 8 -4 15 -9 15 -16 0 -24 40 -11 55 43 52 83 360 54 416
-17 33 -19 34 -56 15z"/>
<path d="M6068 4119 c-3 -73 1 -93 19 -106 15 -12 14 -13 -9 -13 -18 0 -29 7
-33 20 -3 11 -15 25 -26 30 -10 6 -19 20 -19 30 0 15 -7 20 -27 21 -28 0 -28
1 -5 11 21 11 30 28 14 28 -15 0 -114 -39 -128 -51 -8 -6 -14 -8 -14 -4 0 3
-17 -4 -37 -16 -20 -13 -47 -22 -59 -21 -30 2 -41 -16 -18 -32 12 -9 14 -15 5
-20 -22 -14 11 -76 39 -76 7 0 21 -11 32 -25 11 -14 24 -25 30 -25 6 0 25 -16
44 -35 18 -19 40 -35 49 -35 32 0 75 -30 75 -53 0 -12 9 -28 20 -35 16 -10 20
-23 20 -66 0 -45 4 -56 23 -69 21 -14 28 -13 82 10 33 14 67 30 75 37 8 6 31
19 52 28 38 18 58 52 40 70 -8 8 -3 25 14 57 27 51 31 86 11 98 -8 4 -22 22
-32 38 -10 17 -29 39 -42 51 -12 12 -20 24 -16 28 3 3 -7 6 -24 6 -16 0 -33 3
-37 7 -3 4 -16 8 -28 10 -34 5 -70 52 -74 96 -4 55 -14 59 -16 6z"/>
<path d="M90 3690 c0 -5 5 -10 10 -10 6 0 10 5 10 10 0 6 -4 10 -10 10 -5 0
-10 -4 -10 -10z"/>
<path d="M6106 3474 c-9 -25 -7 -34 9 -34 16 0 38 34 28 44 -12 11 -31 6 -37
-10z"/>
<path d="M115 3470 c3 -5 10 -10 16 -10 5 0 9 5 9 10 0 6 -7 10 -16 10 -8 0
-12 -4 -9 -10z"/>
<path d="M84 3453 c3 -20 32 -41 42 -30 8 7 -23 47 -37 47 -4 0 -6 -8 -5 -17z"/>
<path d="M54 3414 c4 -16 3 -23 -3 -19 -6 3 -20 1 -31 -5 -17 -9 -20 -21 -20
-70 0 -46 3 -60 15 -60 8 0 17 -14 21 -36 4 -19 13 -38 20 -41 8 -3 14 -12 14
-19 0 -20 25 -28 47 -15 16 9 16 10 1 11 -9 0 -18 10 -20 23 -2 12 -8 21 -14
20 -6 -1 -9 8 -6 22 2 15 9 22 18 18 18 -7 18 1 -1 38 -16 29 -35 31 -35 4 0
-9 -6 -12 -15 -8 -14 5 -14 8 1 24 10 11 15 28 12 44 -5 21 -2 25 13 20 15 -5
19 -1 19 19 0 35 -10 56 -27 56 -11 0 -13 -7 -9 -26z"/>
<path d="M106 3345 c4 -8 10 -12 15 -9 14 8 10 24 -6 24 -9 0 -12 -6 -9 -15z"/>
<path d="M0 3164 c0 -35 4 -53 10 -49 6 4 8 11 5 16 -4 5 -2 9 2 9 5 0 9 18 9
40 0 27 -4 40 -13 40 -9 0 -13 -16 -13 -56z"/>
<path d="M77 3113 c-3 -5 -1 -17 4 -28 7 -17 8 -17 8 8 1 27 -4 34 -12 20z"/>
<path d="M0 3010 c0 -5 5 -10 11 -10 5 0 8 -4 5 -9 -7 -11 35 -39 52 -34 6 3
12 14 12 24 0 11 -5 17 -10 14 -6 -3 -17 1 -26 9 -17 18 -44 21 -44 6z"/>
<path d="M93 2955 c-3 -9 -3 -18 0 -21 9 -9 27 6 27 22 0 19 -19 18 -27 -1z"/>
<path d="M60 2931 c0 -12 29 -35 36 -28 4 3 -1 13 -9 22 -17 17 -27 19 -27 6z"/>
<path d="M6216 2921 c-8 -12 3 -41 15 -41 5 0 9 11 9 25 0 25 -14 34 -24 16z"/>
<path d="M60 2879 c-13 -9 -12 -10 3 -5 22 7 22 -3 0 -20 -10 -7 -15 -16 -11
-20 4 -4 19 5 32 19 31 33 13 53 -24 26z"/>
<path d="M5944 2856 c-7 -19 21 -56 43 -56 20 0 16 16 -12 46 -21 23 -26 24
-31 10z"/>
<path d="M0 2815 c0 -8 5 -15 10 -15 6 0 10 7 10 15 0 8 -4 15 -10 15 -5 0
-10 -7 -10 -15z"/>
<path d="M11 2764 c-15 -34 -9 -40 14 -14 12 14 15 24 8 31 -6 6 -14 1 -22
-17z"/>
<path d="M1 2560 c0 -33 1 -34 10 -11 6 16 6 28 -1 35 -7 7 -10 -1 -9 -24z"/>
<path d="M1840 2354 c0 -8 5 -12 10 -9 6 4 8 11 5 16 -9 14 -15 11 -15 -7z"/>
<path d="M77 2173 c-4 -3 -7 -11 -7 -17 0 -6 5 -5 12 2 6 6 9 14 7 17 -3 3 -9
2 -12 -2z"/>
<path d="M12 2135 c2 -14 8 -26 13 -26 6 0 11 12 13 26 2 18 -1 25 -13 25 -12
0 -15 -7 -13 -25z"/>
<path d="M1860 2150 c0 -5 5 -10 10 -10 6 0 10 5 10 10 0 6 -4 10 -10 10 -5 0
-10 -4 -10 -10z"/>
<path d="M1498 2131 c-9 -3 -26 -18 -38 -33 -12 -15 -24 -27 -28 -25 -4 1 -22
-4 -39 -12 -28 -11 -33 -19 -33 -46 0 -19 -6 -35 -12 -38 -7 -2 -10 -8 -6 -12
8 -8 78 34 78 47 0 9 64 74 85 85 22 13 16 43 -7 34z"/>
<path d="M7 2043 c-14 -13 -8 -83 7 -83 19 0 27 24 19 60 -5 30 -13 36 -26 23z"/>
<path d="M2815 2021 c-6 -11 9 -23 19 -14 9 9 7 23 -3 23 -6 0 -12 -4 -16 -9z"/>
<path d="M1 1913 c0 -25 1 -26 9 -8 12 27 12 35 0 35 -5 0 -10 -12 -9 -27z"/>
<path d="M516 1724 c-4 -10 -12 -14 -22 -10 -22 9 -36 -3 -22 -18 18 -19 73
-5 73 19 0 24 -21 31 -29 9z"/>
<path d="M1036 1702 c-5 -9 -63 -26 -78 -23 -4 0 -5 -5 -2 -12 3 -9 -10 -18
-38 -26 l-42 -13 40 -19 c21 -10 46 -18 55 -19 23 0 69 38 69 59 0 9 5 22 12
29 9 9 9 15 1 23 -7 7 -13 7 -17 1z"/>
<path d="M597 1666 c-3 -7 -29 -19 -57 -26 -55 -13 -63 -33 -13 -38 22 -2 38
5 61 26 31 29 41 52 23 52 -5 0 -11 -6 -14 -14z"/>
<path d="M149 1660 c-21 -14 -2 -24 23 -13 17 7 19 11 6 15 -8 4 -21 2 -29 -2z"/>
<path d="M1226 1621 c-78 -26 -99 -42 -75 -56 28 -18 219 5 219 27 0 16 36 7
48 -12 14 -23 39 -25 64 -6 17 12 17 14 0 30 -10 9 -23 16 -29 16 -6 0 -13 4
-15 8 -1 5 -32 11 -68 14 -53 4 -80 0 -144 -21z"/>
<path d="M1534 1615 c-10 -8 -14 -15 -8 -15 6 0 14 -18 18 -40 5 -35 10 -40
32 -40 23 0 25 3 22 41 -4 53 -33 77 -64 54z"/>
<path d="M1499 1395 c-8 -8 -20 -22 -26 -30 -7 -7 -13 -16 -13 -20 0 -15 -63
-65 -83 -65 -15 0 -18 -3 -9 -8 7 -5 29 -7 50 -5 20 2 70 4 110 4 54 0 84 5
110 20 21 11 38 15 40 9 2 -6 10 -6 22 0 13 7 19 6 24 -5 3 -8 12 -15 21 -15
8 0 15 -7 15 -15 0 -16 45 -86 62 -96 19 -12 98 33 98 55 0 12 9 32 20 46 11
14 20 32 20 41 0 21 -26 43 -40 34 -17 -11 -160 6 -160 19 0 6 -19 18 -42 26
-45 16 -119 10 -146 -12 -9 -8 -19 -5 -36 11 -22 20 -25 21 -37 6z"/>
<path d="M1775 1401 c-3 -6 3 -15 14 -21 21 -11 37 2 26 20 -8 13 -32 13 -40
1z"/>
<path d="M6370 1280 c0 -5 5 -10 10 -10 6 0 10 5 10 10 0 6 -4 10 -10 10 -5 0
-10 -4 -10 -10z"/>
<path d="M1403 1223 c-27 -3 -43 -9 -43 -17 0 -8 -23 -19 -57 -27 -47 -11 -59
-18 -61 -36 -3 -21 1 -23 35 -23 54 0 83 -39 83 -110 0 -29 5 -50 11 -50 6 0
24 -13 40 -30 24 -24 34 -28 49 -20 10 6 27 10 38 10 10 0 39 15 63 33 24 18
61 41 82 51 20 9 37 21 37 26 0 6 19 10 42 10 46 0 48 8 2 13 -17 2 -35 6 -41
10 -14 9 -43 -2 -43 -15 0 -5 -5 -6 -11 -2 -6 3 -8 16 -5 28 8 33 -15 58 -82
90 -34 16 -63 37 -65 47 -3 11 -11 18 -19 17 -7 -1 -32 -3 -55 -5z"/>
<path d="M1236 383 c-10 -25 5 -34 68 -40 31 -3 59 -10 62 -14 10 -17 34 -9
34 11 0 25 -45 48 -87 44 -18 -1 -33 2 -33 7 0 16 -38 10 -44 -8z"/>
<path d="M680 256 c0 -3 8 -21 17 -41 12 -25 19 -31 25 -23 5 8 6 1 2 -16 -4
-15 -3 -31 3 -35 5 -3 20 -22 32 -41 13 -19 39 -50 58 -68 30 -28 41 -32 89
-32 46 0 54 3 54 18 0 11 -11 24 -25 30 -14 7 -29 20 -32 29 -8 20 -28 43 -38
43 -4 0 -23 14 -42 30 -18 17 -40 30 -48 30 -8 0 -15 8 -15 18 0 9 -15 26 -33
37 -42 25 -47 28 -47 21z"/>
<path d="M1336 175 c-3 -9 0 -15 9 -15 8 0 15 7 15 15 0 8 -4 15 -9 15 -5 0
-11 -7 -15 -15z"/>
<path d="M1497 108 c-2 -29 -3 -56 0 -60 6 -12 91 -10 114 2 23 13 25 43 4 60
-8 7 -15 21 -15 31 0 16 -8 19 -49 19 l-48 0 -6 -52z"/>
<path d="M1085 46 c-11 -8 -16 -19 -12 -30 5 -12 20 -16 67 -16 52 0 60 3 60
18 0 35 -79 55 -115 28z"/>
<path d="M1360 10 c0 -5 9 -10 21 -10 11 0 17 4 14 10 -8 13 -35 13 -35 0z"/>
</g>
</svg>
